<svg width="622" height="315" viewBox="0 0 622 315" fill="none" xmlns="http://www.w3.org/2000/svg">
<path fill-rule="evenodd" clip-rule="evenodd" d="M622 0H3.19481e-05L0 315H622V0ZM282.5 154V205H218.5V154C218.5 154 218.694 150.272 218 148C217.311 145.743 216.66 144.176 215 142.5C213.486 140.971 212.142 140.597 210.091 140.025L210 140C208.604 139.611 207.611 139.585 206.399 139.553L206.398 139.553C205.969 139.541 205.512 139.529 205 139.5C202.398 139.352 198.325 139.5 198.325 139.5V205H130.5L130 122.5H135C135 122.5 136 122.5 137 122C138 121.5 138.5 121 138.5 120.5C138.5 120.235 138.396 119.912 138.279 119.549C138.175 119.227 138.061 118.873 138 118.5C137.96 118.252 137.916 118.017 137.875 117.793C137.659 116.62 137.491 115.708 138 114.5L138.026 114.437C138.245 113.916 138.662 112.919 139.5 112.5C140.5 112 141.5 112 142 112C142.5 112 143.557 112.036 144.5 112.5C145 112.746 146.5 113.5 147 114C147.5 114.5 148.219 115.397 148.5 116.5C148.741 117.446 148.809 118.074 148.5 119C148.236 119.793 147.83 120.188 147.285 120.719C147.25 120.754 147.214 120.789 147.177 120.825C147.12 120.881 147.061 120.94 147 121C146.86 121.14 146.658 121.305 146.424 121.496L146.422 121.497C145.822 121.987 145.011 122.648 144.5 123.5C143.574 125.044 142.886 126.308 143.5 128C143.751 128.693 144.109 129.063 144.547 129.517C144.69 129.664 144.841 129.821 145 130C145.68 130.767 147.398 131.771 149.293 132.879C150.186 133.401 151.118 133.946 152 134.5C154.524 136.086 155.949 136.959 158.5 138.5C158.838 138.704 159.181 138.947 159.507 139.177C160.122 139.611 160.673 140 161 140C161.5 140 162.416 138.251 162.5 138C163 136.5 163.663 134.691 164 134C165.073 131.801 165.728 130.59 167 128.5C167.237 128.11 167.448 127.754 167.646 127.418L167.648 127.415L167.651 127.411C168.368 126.196 168.924 125.254 170 124L170.24 123.72C171.63 122.096 172.533 121.041 174.5 120C174.596 119.949 174.7 119.892 174.811 119.832C175.499 119.457 176.426 118.952 177 119C177.809 119.067 178.246 119.41 178.857 119.888L178.86 119.89L178.876 119.903L179 120C180.111 120.864 180.555 121.664 181 123C181.104 123.312 181.188 123.62 181.27 123.917C181.58 125.048 181.847 126.025 183 126.5C183.903 126.872 184.566 126.783 185.5 126.5C186.443 126.214 186.912 125.694 187.494 125.047C187.651 124.873 187.815 124.69 188 124.5C188.841 123.634 189.96 121.526 191 119.5C191.878 117.789 192.828 115.655 193 115C193.102 114.61 193.23 114.25 193.352 113.907C193.705 112.911 194.009 112.054 193.5 111C193.015 109.995 192.294 109.64 191.351 109.174L191.348 109.173C191.235 109.117 191.119 109.06 191 109C189.783 108.386 188.643 108.697 187.505 109.007C186.36 109.319 185.217 109.631 184 109C183.926 108.961 183.853 108.924 183.783 108.888C183.034 108.504 182.508 108.234 182 107.5C181.444 106.697 181.45 105.38 181.5 104C181.518 103.515 181.842 102.358 182.181 101.15L182.182 101.146C182.29 100.763 182.399 100.374 182.5 100C182.85 98.7051 183.333 97.4639 183.781 96.3122C184.427 94.6535 185 93.1804 185 92C185 91.3825 184.5 90.5 184 90C183.64 89.6401 181.949 88.6086 180.224 87.5564L180.223 87.5558L180.22 87.5543C179.55 87.1455 178.875 86.7336 178.27 86.3567C177.444 85.8415 176.819 85.4062 176.232 84.9975C175.285 84.3374 174.436 83.7465 173 83C172.846 82.9198 172.688 82.8319 172.528 82.7425C171.885 82.3831 171.199 82 170.5 82C169.883 82 169.503 82.1411 169 82.5C168 83.2144 168 84.983 168 85.4927V85.5C168 85.9982 168.055 86.4696 168.108 86.9189C168.243 88.0645 168.361 89.0662 167.5 90C167.023 90.5177 166.642 90.7111 166 91C164.6 91.6301 163.529 91.4114 162.129 91.1257C161.927 91.0844 161.718 91.0417 161.5 91C161.371 90.9753 161.242 90.9512 161.114 90.9272C160.033 90.7251 158.97 90.5264 158 90C156.901 89.4037 156.474 89.1569 156 88C155.664 87.1812 155.785 86.5803 155.948 85.7613L155.977 85.6155L156 85.5C156.351 83.6916 157.197 82.8026 158.5 81.5C158.519 81.4813 158.537 81.4629 158.555 81.4447C158.572 81.4284 158.588 81.4122 158.604 81.3962C159.049 80.9539 159.365 80.64 159.5 80C159.675 79.1669 159.5 78 159 77.5C158.358 76.858 157.796 76.2721 157.255 75.7077C156.23 74.6391 155.28 73.6479 154 72.5C151.702 70.4384 150.261 69.3807 147.5 68C146.5 67.5 145.763 67.8285 145.5 68C144.91 68.3846 144.377 68.9053 144 69.5C143.223 70.7272 142.786 71.801 142.355 72.8602C141.879 74.0293 141.411 75.1804 140.5 76.5C138.851 78.8887 137.836 80.2768 135.5 82C134.983 82.3814 134.742 82.4104 134.173 82.4789L134.077 82.4905L134 82.5C133.134 82.6083 132.727 82.4844 132 82C130.5 81 130.5 80 130.5 80V60H248.5C248.5 60 253.696 59.9936 257 60.5C260.142 60.9816 262.042 61.3374 265 62.5C267.763 63.5859 269.139 64.6587 271.472 66.4785L271.5 66.5C274.113 68.5377 275.609 69.7788 277.5 72.5C279.895 75.9466 280.497 78.4042 281.494 82.4739L281.5 82.5C282.563 86.8392 282.541 89.52 282.505 93.8089L282.505 93.8457L282.5 94.5C282.468 98.8134 282.331 101.267 281.5 105.5C281.401 106.007 281.309 106.488 281.222 106.949L281.221 106.95C280.618 110.131 280.194 112.368 278.5 115.5C276.977 118.317 275.888 119.867 273.5 122C270.393 124.775 267.99 125.611 264.075 126.974L264 127C259.695 128.498 252.5 129 252.5 129C252.5 129 258.997 129.434 263 130.5C265.805 131.247 267.409 131.692 270 133C272.514 134.269 273.996 135.022 276 137C278.313 139.283 279.224 141.011 280.5 144C282.064 147.663 282.5 154 282.5 154ZM198.5 83V115H207.5C208.87 115 210.684 114.426 212.5 113.5C214.24 112.613 215.32 112.056 216.5 110.5C217.292 109.456 217.604 108.749 218 107.5L218.057 107.321C218.46 106.049 218.91 104.633 219 104C219.5 100.5 219.5 98.5 219 94.5C218.938 94.0039 218.417 92.3161 218 91C217.604 89.7514 217.254 89.0711 216.5 88C215.305 86.3027 214.318 85.5009 212.5 84.5C210.714 83.5169 209 83 207.5 83H198.5ZM295.5 60H363.5V160H423.5V205H295.5V60ZM502 60H433.5V205H502V60ZM551.225 158.138C548.592 158.138 546.142 157.68 543.875 156.763C541.608 155.863 539.633 154.588 537.95 152.938C536.283 151.288 534.975 149.296 534.025 146.963C533.075 144.646 532.6 142.071 532.6 139.238C532.6 136.405 533.075 133.821 534.025 131.488C534.975 129.155 536.283 127.155 537.95 125.488C539.633 123.838 541.608 122.555 543.875 121.638C546.142 120.738 548.592 120.288 551.225 120.288C553.858 120.288 556.308 120.738 558.575 121.638C560.842 122.555 562.808 123.838 564.475 125.488C566.142 127.155 567.45 129.155 568.4 131.488C569.35 133.821 569.825 136.405 569.825 139.238C569.825 142.071 569.342 144.646 568.375 146.963C567.425 149.296 566.117 151.288 564.45 152.938C562.783 154.588 560.817 155.863 558.55 156.763C556.283 157.68 553.842 158.138 551.225 158.138ZM556.075 148.788C554.642 149.255 553.025 149.488 551.225 149.488C549.408 149.488 547.775 149.255 546.325 148.788C544.892 148.321 543.675 147.646 542.675 146.763C541.675 145.896 540.908 144.83 540.375 143.563C539.858 142.296 539.6 140.855 539.6 139.238C539.6 137.605 539.858 136.146 540.375 134.863C540.908 133.596 541.675 132.521 542.675 131.638C543.675 130.771 544.892 130.105 546.325 129.638C547.775 129.171 549.408 128.938 551.225 128.938C553.025 128.938 554.642 129.171 556.075 129.638C557.525 130.105 558.75 130.771 559.75 131.638C560.75 132.521 561.517 133.596 562.05 134.863C562.583 136.146 562.85 137.605 562.85 139.238C562.85 140.855 562.583 142.296 562.05 143.563C561.517 144.83 560.75 145.896 559.75 146.763C558.75 147.646 557.525 148.321 556.075 148.788ZM539.75 119.662V106.162H569.425V97.7121H533V119.662H539.75ZM539.1 78.7164C539.1 79.8831 539.2 80.9164 539.4 81.8164C539.6 82.7164 539.867 83.5664 540.2 84.3664H545.725V80.7664C545.725 80.2331 545.867 79.8164 546.15 79.5164C546.433 79.2164 546.792 79.0664 547.225 79.0664H551.875V92.0164H536.5C535.817 91.0831 535.225 90.1081 534.725 89.0914C534.242 88.0914 533.842 87.0164 533.525 85.8664C533.208 84.7331 532.975 83.5164 532.825 82.2164C532.675 80.9331 532.6 79.5497 532.6 78.0664C532.6 75.3997 533.067 72.9331 534 70.6664C534.95 68.3997 536.25 66.4331 537.9 64.7664C539.567 63.1164 541.533 61.8164 543.8 60.8664C546.083 59.9331 548.558 59.4664 551.225 59.4664C553.942 59.4664 556.433 59.9164 558.7 60.8164C560.983 61.7164 562.95 62.9997 564.6 64.6664C566.25 66.3497 567.533 68.3747 568.45 70.7414C569.367 73.1247 569.825 75.7831 569.825 78.7164C569.825 80.2331 569.7 81.6581 569.45 82.9914C569.2 84.3247 568.858 85.5497 568.425 86.6664C567.992 87.7997 567.475 88.8331 566.875 89.7664C566.275 90.6997 565.625 91.5331 564.925 92.2664L561.2 89.8164C560.85 89.5831 560.575 89.2997 560.375 88.9664C560.175 88.6497 560.075 88.2997 560.075 87.9164C560.075 87.4164 560.242 86.8997 560.575 86.3664C560.975 85.6997 561.317 85.0664 561.6 84.4664C561.9 83.8831 562.142 83.2831 562.325 82.6664C562.508 82.0497 562.642 81.3997 562.725 80.7164C562.808 80.0331 562.85 79.2664 562.85 78.4164C562.85 76.8331 562.567 75.4081 562 74.1414C561.45 72.8747 560.667 71.7914 559.65 70.8914C558.633 70.0081 557.408 69.3247 555.975 68.8414C554.558 68.3581 552.975 68.1164 551.225 68.1164C549.292 68.1164 547.575 68.3831 546.075 68.9164C544.575 69.4497 543.308 70.1831 542.275 71.1164C541.242 72.0664 540.45 73.1831 539.9 74.4664C539.367 75.7664 539.1 77.1831 539.1 78.7164ZM533 223.441V229.991L569.425 215.891V207.241L533 193.141V199.741C533 200.441 533.183 201.032 533.55 201.516C533.933 201.999 534.358 202.324 534.825 202.491L541.175 204.641V218.491L534.825 220.641C534.292 220.824 533.85 221.149 533.5 221.616C533.167 222.099 533 222.707 533 223.441ZM546.925 206.591V216.541L556.9 213.191C557.533 212.974 558.275 212.716 559.125 212.416C559.992 212.132 560.925 211.849 561.925 211.566C560.908 211.299 559.967 211.024 559.1 210.741C558.233 210.457 557.483 210.191 556.85 209.941L546.925 206.591ZM533 162.728H569.425V176.128C569.425 178.645 569.192 180.786 568.725 182.553C568.258 184.32 567.6 185.761 566.75 186.878C565.9 187.995 564.867 188.803 563.65 189.303C562.433 189.82 561.075 190.078 559.575 190.078C558.758 190.078 557.967 189.961 557.2 189.728C556.45 189.495 555.742 189.128 555.075 188.628C554.408 188.128 553.8 187.486 553.25 186.703C552.717 185.92 552.25 184.978 551.85 183.878C551.267 186.278 550.317 188.053 549 189.203C547.7 190.353 546.025 190.928 543.975 190.928C542.425 190.928 540.983 190.628 539.65 190.028C538.317 189.428 537.15 188.545 536.15 187.378C535.167 186.228 534.392 184.803 533.825 183.103C533.275 181.403 533 179.461 533 177.278V162.728ZM539.375 171.178H548.45V177.078C548.45 178.145 548.35 179.028 548.15 179.728C547.95 180.428 547.667 180.986 547.3 181.403C546.933 181.836 546.483 182.136 545.95 182.303C545.417 182.486 544.817 182.578 544.15 182.578C543.567 182.578 542.992 182.503 542.425 182.353C541.858 182.203 541.35 181.928 540.9 181.528C540.45 181.128 540.083 180.57 539.8 179.853C539.517 179.153 539.375 178.245 539.375 177.128V171.178ZM554.1 175.578V171.178H563.1V176.128C563.1 177.078 563.025 177.895 562.875 178.578C562.725 179.278 562.475 179.853 562.125 180.303C561.775 180.753 561.308 181.086 560.725 181.303C560.158 181.52 559.442 181.628 558.575 181.628C557.692 181.628 556.958 181.486 556.375 181.203C555.792 180.936 555.333 180.536 555 180.003C554.667 179.486 554.433 178.853 554.3 178.103C554.167 177.353 554.1 176.511 554.1 175.578ZM539.75 255.456V241.956H569.425V233.506H533V255.456H539.75ZM503.342 212.204V219.708H491.862V253H482.398V219.708H470.918V212.204H503.342ZM447.077 242.584C446.853 242.491 446.629 242.444 446.405 242.444C446.125 242.444 445.854 242.509 445.593 242.64C445.332 242.752 445.089 242.901 444.865 243.088C444.305 243.573 443.745 243.984 443.185 244.32C442.644 244.637 442.065 244.899 441.449 245.104C440.852 245.309 440.198 245.459 439.489 245.552C438.78 245.627 437.996 245.664 437.137 245.664C435.644 245.664 434.244 245.375 432.937 244.796C431.63 244.217 430.482 243.377 429.493 242.276C428.522 241.156 427.748 239.784 427.169 238.16C426.609 236.536 426.329 234.679 426.329 232.588C426.329 230.591 426.609 228.789 427.169 227.184C427.748 225.579 428.541 224.216 429.549 223.096C430.576 221.957 431.798 221.089 433.217 220.492C434.636 219.876 436.204 219.568 437.921 219.568C438.91 219.568 439.769 219.643 440.497 219.792C441.244 219.941 441.888 220.128 442.429 220.352C442.989 220.557 443.465 220.791 443.857 221.052C444.268 221.295 444.641 221.528 444.977 221.752C445.313 221.957 445.63 222.135 445.929 222.284C446.228 222.433 446.545 222.508 446.881 222.508C447.385 222.508 447.777 222.405 448.057 222.2C448.337 221.976 448.58 221.733 448.785 221.472L451.977 217.188C451.212 216.385 450.334 215.657 449.345 215.004C448.356 214.332 447.273 213.763 446.097 213.296C444.921 212.811 443.652 212.437 442.289 212.176C440.945 211.896 439.508 211.756 437.977 211.756C434.822 211.756 431.938 212.269 429.325 213.296C426.712 214.323 424.462 215.76 422.577 217.608C420.71 219.456 419.254 221.659 418.209 224.216C417.164 226.755 416.641 229.545 416.641 232.588C416.641 235.575 417.098 238.347 418.013 240.904C418.928 243.443 420.234 245.645 421.933 247.512C423.65 249.36 425.732 250.816 428.177 251.88C430.641 252.925 433.422 253.448 436.521 253.448C439.9 253.448 442.821 252.907 445.285 251.824C447.768 250.723 449.83 249.099 451.473 246.952L447.721 243.004C447.516 242.799 447.301 242.659 447.077 242.584ZM395.673 212.204V219.484H378.929V229.004H391.753V236.004H378.929V245.72H395.673V253H369.409V212.204H395.673ZM80 110C81.7465 110 83.0456 109.467 84.5 108.5C85.3899 107.908 85.7511 107.286 86.2376 106.448C86.3204 106.305 86.4068 106.156 86.5 106C87 105.163 87.2695 103.854 87 102.5C86.787 101.43 86.0355 100.915 85.2629 100.386C84.5657 99.909 83.8513 99.4198 83.5 98.5C83.0762 97.3904 82.8529 96 83 95.5C83.3566 94.2875 84.3075 93.9095 85.3965 93.4767C85.7548 93.3343 86.1281 93.186 86.5 93C87.5 92.5 91.8785 90.5517 95.5 89.5C96.0123 89.3512 96.4626 89.1198 96.8893 88.9005C97.7503 88.458 98.5152 88.0649 99.5 88.5C99.8547 88.6567 100.49 89.7663 100.987 90.6352C101.191 90.9913 101.371 91.3069 101.5 91.5C101.626 91.6891 101.777 91.9199 101.948 92.18L101.95 92.1834L101.953 92.1873L101.955 92.1902L101.957 92.1938L101.958 92.1955L101.959 92.1967L101.96 92.1977C102.386 92.8486 102.931 93.6796 103.5 94.5C103.962 95.1668 104.398 95.8478 104.82 96.5052C105.919 98.2214 106.915 99.777 108 100.5C108.988 101.159 109.821 101.148 111 101C112.043 100.869 112.615 100.567 113.5 100C114.317 99.4763 114.653 98.739 114.988 98.0035C115.327 97.2593 115.665 96.517 116.5 96C117.55 95.35 118.275 95.3424 119.5 95.5C120.629 95.6454 121.087 95.82 122 96.5C123.329 97.4896 124.014 98.1688 125 99.5C126.405 101.396 126.928 102.711 127.5 105C127.557 105.228 127.614 105.449 127.67 105.665C128.101 107.342 128.443 108.671 128 110C127.502 111.493 126.073 111.93 124.5 112C123.738 112.034 123.345 111.835 122.802 111.56C122.466 111.39 122.073 111.191 121.5 111C120.203 110.568 119.252 110.452 118 111C116.603 111.611 115.815 112.508 115.5 114C115.255 115.162 115.313 115.827 115.5 117C115.935 119.727 116.35 121.816 117 124.5C117.657 127.213 121.5 133.5 121.5 133.5C121.5 133.5 122.193 134.601 123 137L119.677 138.713C117.901 139.617 115.731 140.7 114 141.5C113.461 141.749 113.001 141.98 112.569 142.196C111.599 142.682 110.768 143.099 109.5 143.5C108.956 143.672 108.458 143.88 107.984 144.079L107.982 144.079C106.642 144.64 105.487 145.123 104 144.5C103.133 144.136 102.312 143.313 102.03 143.03L102 143C101.973 142.973 101.937 142.939 101.895 142.898L101.892 142.895C101.547 142.564 100.774 141.822 100.5 141C100.191 140.074 100.5 138.5 100.5 138.5C100.5 138.5 100.608 137.576 100.5 137C100.371 136.313 100.016 135.78 99.7123 135.326C99.6369 135.213 99.5647 135.105 99.5 135C99.2228 134.552 98.3998 133.879 97.5 133.5C96.0603 132.894 94.5 133.236 93.5 133.5C91.9781 133.902 90.7969 134.445 90 135.5C89.3663 136.339 89 136.948 89 138C89 139.035 89.8419 140.268 89.9932 140.49L90 140.5C90.473 141.194 91.1115 141.472 91.75 141.75C92.3885 142.028 93.027 142.306 93.5 143L93.5306 143.045C94.1062 143.889 94.5 144.467 94.5 145.5C94.5 146.453 93.7193 147.66 93.5361 147.943L93.5105 147.983L93.5019 147.997L93.5 148C92.0605 150.553 90.1328 151.399 87.6336 152.496C87.268 152.657 86.8903 152.823 86.5 153C83.2221 154.489 81.0966 154.833 77.5 155C77.3024 155.009 77.0924 155.021 76.8811 155.034C76.0498 155.082 75.1983 155.132 75 155C74.7567 154.838 74.4818 154.168 74.2058 153.495C74.1371 153.328 74.0684 153.16 74 153C73.8622 152.677 73.7383 151.911 73.5811 150.938C73.347 149.49 73.0388 147.583 72.5 146C71.7399 143.766 71.1382 142.567 70 140.5C69.8586 140.243 69.7383 140.012 69.6253 139.794C69.2992 139.166 69.0341 138.655 68.5 138C67.5367 136.818 66.8872 136.134 65.5 135.5C65.3796 135.445 65.2703 135.391 65.1667 135.339C64.7872 135.15 64.4851 135 64 135C63.4943 135 63.1844 135.157 62.7829 135.36C62.6941 135.405 62.6008 135.452 62.5 135.5C62.2009 135.643 61.6959 136.055 61.2475 136.421C60.9463 136.667 60.6706 136.891 60.5 137C60.2217 137.177 59.9762 137.355 59.7438 137.524C59.0534 138.025 58.4783 138.442 57.5 138.5C56.0155 138.587 55.1608 137.929 54 137C52.562 135.849 51.6947 134.706 51 133C50.3212 131.333 50.0634 130.246 50.5 128.5C50.7118 127.653 50.9037 127.138 51.5 126.5C51.9213 126.049 52.2758 125.869 52.7778 125.614C52.8487 125.578 52.9226 125.54 53 125.5C54.2412 124.858 55.499 125.262 56.7166 125.654C58.0511 126.083 59.3372 126.497 60.5 125.5C61.2413 124.865 61.6913 124.426 62 123.5C62.2295 122.811 62.1614 122.303 62.0789 121.687C62.0504 121.475 62.0202 121.25 62 121C61.9336 120.181 61.2778 117.586 60.5 115.5C59.8261 113.693 58.7892 111.836 58.0897 110.583C57.8391 110.135 57.6319 109.764 57.5 109.5C57.0547 108.609 56.7755 107.97 57 107C57.2201 106.049 57.6877 105.542 58.5 105C60 104 61.9734 102.692 64.5 102C66.5171 101.447 67.8885 101.465 69.7253 101.489L69.7274 101.489C70.1257 101.495 70.5466 101.5 71 101.5C72 101.5 73.0778 101.766 73.5 102C74.5939 102.605 75.1967 103.287 75.5 104.5C75.6561 105.124 75.7212 105.683 75.7805 106.192C75.9112 107.313 76.0137 108.193 77 109C77.9558 109.782 78.7651 110 80 110ZM158.891 242.444C159.115 242.444 159.339 242.491 159.563 242.584C159.787 242.659 160.002 242.799 160.207 243.004L163.959 246.952C162.316 249.099 160.254 250.723 157.771 251.824C155.307 252.907 152.386 253.448 149.007 253.448C145.908 253.448 143.127 252.925 140.663 251.88C138.218 250.816 136.136 249.36 134.419 247.512C132.72 245.645 131.414 243.443 130.499 240.904C129.584 238.347 129.127 235.575 129.127 232.588C129.127 229.545 129.65 226.755 130.695 224.216C131.74 221.659 133.196 219.456 135.063 217.608C136.948 215.76 139.198 214.323 141.811 213.296C144.424 212.269 147.308 211.756 150.463 211.756C151.994 211.756 153.431 211.896 154.775 212.176C156.138 212.437 157.407 212.811 158.583 213.296C159.759 213.763 160.842 214.332 161.831 215.004C162.82 215.657 163.698 216.385 164.463 217.188L161.271 221.472C161.066 221.733 160.823 221.976 160.543 222.2C160.263 222.405 159.871 222.508 159.367 222.508C159.031 222.508 158.714 222.433 158.415 222.284C158.116 222.135 157.799 221.957 157.463 221.752C157.127 221.528 156.754 221.295 156.343 221.052C155.951 220.791 155.475 220.557 154.915 220.352C154.374 220.128 153.73 219.941 152.983 219.792C152.255 219.643 151.396 219.568 150.407 219.568C148.69 219.568 147.122 219.876 145.703 220.492C144.284 221.089 143.062 221.957 142.035 223.096C141.027 224.216 140.234 225.579 139.655 227.184C139.095 228.789 138.815 230.591 138.815 232.588C138.815 234.679 139.095 236.536 139.655 238.16C140.234 239.784 141.008 241.156 141.979 242.276C142.968 243.377 144.116 244.217 145.423 244.796C146.73 245.375 148.13 245.664 149.623 245.664C150.482 245.664 151.266 245.627 151.975 245.552C152.684 245.459 153.338 245.309 153.935 245.104C154.551 244.899 155.13 244.637 155.671 244.32C156.231 243.984 156.791 243.573 157.351 243.088C157.575 242.901 157.818 242.752 158.079 242.64C158.34 242.509 158.611 242.444 158.891 242.444ZM224.928 240.82C225.954 238.281 226.468 235.537 226.468 232.588C226.468 229.657 225.954 226.923 224.928 224.384C223.92 221.845 222.492 219.643 220.644 217.776C218.796 215.909 216.565 214.444 213.952 213.38C211.357 212.297 208.473 211.756 205.3 211.756C202.126 211.756 199.233 212.288 196.62 213.352C194.006 214.416 191.766 215.881 189.9 217.748C188.052 219.615 186.614 221.817 185.588 224.356C184.58 226.895 184.076 229.639 184.076 232.588C184.076 235.537 184.58 238.281 185.588 240.82C186.614 243.359 188.052 245.571 189.9 247.456C191.766 249.323 194.006 250.788 196.62 251.852C199.233 252.916 202.126 253.448 205.3 253.448C208.473 253.448 211.357 252.916 213.952 251.852C216.565 250.788 218.796 249.323 220.644 247.456C222.492 245.571 223.92 243.359 224.928 240.82ZM216.78 232.588C216.78 230.572 216.518 228.761 215.996 227.156C215.473 225.532 214.717 224.16 213.728 223.04C212.757 221.92 211.562 221.061 210.144 220.464C208.725 219.867 207.11 219.568 205.3 219.568C203.47 219.568 201.837 219.867 200.4 220.464C198.981 221.061 197.777 221.92 196.788 223.04C195.817 224.16 195.07 225.532 194.548 227.156C194.025 228.761 193.764 230.572 193.764 232.588C193.764 234.623 194.025 236.452 194.548 238.076C195.07 239.681 195.817 241.044 196.788 242.164C197.777 243.284 198.981 244.143 200.4 244.74C201.837 245.319 203.47 245.608 205.3 245.608C207.11 245.608 208.725 245.319 210.144 244.74C211.562 244.143 212.757 243.284 213.728 242.164C214.717 241.044 215.473 239.681 215.996 238.076C216.518 236.452 216.78 234.623 216.78 232.588ZM253.897 212.204C254.307 212.204 254.653 212.223 254.933 212.26C255.213 212.297 255.465 212.372 255.689 212.484C255.913 212.577 256.127 212.717 256.333 212.904C256.538 213.091 256.771 213.343 257.033 213.66L276.409 238.16C276.334 237.376 276.278 236.62 276.241 235.892C276.203 235.145 276.185 234.445 276.185 233.792V212.204H284.529V253H279.601C278.873 253 278.257 252.888 277.753 252.664C277.249 252.44 276.763 252.029 276.297 251.432L257.061 227.128C257.117 227.837 257.163 228.537 257.201 229.228C257.238 229.9 257.257 230.535 257.257 231.132V253H248.913V212.204H253.897ZM315.181 212.26C314.901 212.223 314.555 212.204 314.145 212.204H309.161V253H317.505V231.132C317.505 230.535 317.486 229.9 317.449 229.228C317.411 228.537 317.365 227.837 317.309 227.128L336.545 251.432C337.011 252.029 337.497 252.44 338.001 252.664C338.505 252.888 339.121 253 339.849 253H344.777V212.204H336.433V233.792C336.433 234.445 336.451 235.145 336.489 235.892C336.526 236.62 336.582 237.376 336.657 238.16L317.281 213.66C317.019 213.343 316.786 213.091 316.581 212.904C316.375 212.717 316.161 212.577 315.937 212.484C315.713 212.372 315.461 212.297 315.181 212.26Z" fill="white"/>
</svg>
