<svg width="513" height="205" viewBox="0 0 513 205" fill="none" xmlns="http://www.w3.org/2000/svg">
<path fill-rule="evenodd" clip-rule="evenodd" d="M233.215 148V97C233.215 97 232.779 90.6627 231.215 87C229.939 84.0112 229.028 82.2828 226.715 80C224.711 78.0219 223.229 77.2688 220.715 76C218.124 74.6922 216.52 74.2468 213.715 73.5C209.713 72.4343 203.215 72 203.215 72C203.215 72 210.41 71.4983 214.715 70L214.791 69.9738C218.706 68.6113 221.108 67.7751 224.215 65C226.604 62.8666 227.692 61.3171 229.215 58.5C231.155 54.9136 231.43 52.5008 232.215 48.5C233.046 44.2673 233.183 41.8134 233.215 37.5C233.251 32.7976 233.334 30.0676 232.215 25.5L232.209 25.4739C231.212 21.4042 230.61 18.9466 228.215 15.5C226.324 12.7788 224.828 11.5377 222.215 9.5L222.188 9.47855C219.854 7.65872 218.479 6.58593 215.715 5.5C212.757 4.33735 210.857 3.98156 207.715 3.5C204.412 2.99364 199.215 3 199.215 3H81.2153V23C81.2153 23 81.2153 24 82.7153 25C83.4419 25.4844 83.8488 25.6083 84.7153 25.5C85.4139 25.4127 85.6488 25.4179 86.2153 25C88.5513 23.2768 89.566 21.8887 91.2153 19.5C92.9519 16.9849 93.0796 15.0818 94.7153 12.5C95.0921 11.9053 95.6256 11.3846 96.2153 11C96.4783 10.8285 97.2153 10.5 98.2153 11C100.977 12.3807 102.417 13.4384 104.715 15.5C106.671 17.2541 107.858 18.6424 109.715 20.5C110.215 21 110.391 22.1669 110.215 23C110.07 23.6889 109.715 24 109.215 24.5C107.913 25.8026 107.066 26.6915 106.715 28.5C106.53 29.4585 106.345 30.0966 106.715 31C107.189 32.1569 107.616 32.4037 108.715 33C109.801 33.589 111.002 33.7677 112.215 34C113.941 34.3305 115.113 34.7212 116.715 34C117.357 33.7111 117.738 33.5177 118.215 33C119.414 31.6999 118.715 30.2682 118.715 28.5V28.4927C118.715 27.983 118.715 26.2144 119.715 25.5C120.218 25.1411 120.598 25 121.215 25C122.089 25 122.941 25.5973 123.715 26C126.041 27.2088 126.825 28.0094 128.986 29.3567C131.146 30.7041 134.215 32.5 134.715 33C135.215 33.5 135.715 34.3825 135.715 35C135.715 37 134.07 39.8403 133.215 43C132.795 44.5544 132.239 46.3603 132.215 47C132.165 48.3798 132.16 49.6973 132.715 50.5C133.271 51.3027 133.849 51.5506 134.715 52C137.142 53.2584 139.275 50.7687 141.715 52C142.832 52.5632 143.672 52.8742 144.215 54C144.9 55.4176 144.115 56.4773 143.715 58C143.544 58.6546 142.593 60.7891 141.715 62.5C140.676 64.5259 139.556 66.6338 138.715 67.5C137.845 68.3972 137.412 69.1374 136.215 69.5C135.281 69.7831 134.618 69.8717 133.715 69.5C132.26 68.9006 132.215 67.5 131.715 66C131.27 64.6642 130.827 63.8645 129.715 63C129.026 62.4639 128.586 62.0725 127.715 62C127.049 61.9444 125.908 62.6333 125.215 63C123.137 64.1001 122.247 65.2156 120.715 67C119.34 68.6029 118.814 69.696 117.715 71.5C116.443 73.5897 115.788 74.8011 114.715 77C114.378 77.6913 113.715 79.5 113.215 81C113.132 81.2512 112.215 83 111.715 83C111.215 83 110.19 82.0888 109.215 81.5C106.664 79.9586 105.239 79.0859 102.715 77.5C99.9638 75.7708 96.7153 74.1287 95.7153 73C95.0679 72.2692 94.5483 71.9178 94.2153 71C93.6013 69.3077 94.2891 68.0437 95.2153 66.5C95.9257 65.316 97.2153 64.5 97.7153 64C98.4057 63.3096 98.9066 62.9262 99.2153 62C99.5241 61.0738 99.4559 60.4462 99.2153 59.5C98.9348 58.3965 98.2153 57.5 97.7153 57C97.2153 56.5 95.7153 55.746 95.2153 55.5C94.2718 55.0357 93.2153 55 92.7153 55C92.2153 55 91.2153 55 90.2153 55.5C89.3421 55.9366 88.9259 57 88.7153 57.5C88.1091 58.9397 88.4636 59.9583 88.7153 61.5C88.8451 62.2946 89.2153 63 89.2153 63.5C89.2153 64 88.7153 64.5 87.7153 65C86.7153 65.5 85.7153 65.5 85.7153 65.5H80.7153L81.2153 148H149.04V82.5C149.04 82.5 153.113 82.3518 155.715 82.5C157.675 82.6115 158.825 82.4731 160.715 83L160.806 83.0252C162.858 83.5969 164.201 83.9713 165.715 85.5C167.376 87.1763 168.026 88.7435 168.715 91C169.409 93.2719 169.215 97 169.215 97V148H233.215ZM149.215 58V26H158.215C159.715 26 161.429 26.5169 163.215 27.5C165.034 28.5009 166.021 29.3027 167.215 31C167.969 32.0711 168.319 32.7514 168.715 34C169.133 35.3161 169.653 37.0039 169.715 37.5C170.215 41.5 170.215 43.5 169.715 47C169.625 47.6332 169.176 49.0488 168.772 50.3213L168.715 50.5C168.319 51.7486 168.007 52.4564 167.215 53.5C166.035 55.0556 164.955 55.6134 163.215 56.5C161.399 57.4256 159.585 58 158.215 58H149.215Z" fill="black"/>
<path d="M246.215 3H314.215V103H374.215V148H246.215V3Z" fill="black"/>
<path d="M384.215 3H452.715V148H384.215V3Z" fill="black"/>
<path d="M214.715 70C210.41 71.4983 203.215 72 203.215 72C203.215 72 209.713 72.4343 213.715 73.5C216.52 74.2468 218.124 74.6922 220.715 76C223.229 77.2688 224.711 78.0219 226.715 80C229.028 82.2828 229.939 84.0112 231.215 87C232.779 90.6627 233.215 97 233.215 97V148H169.215V97C169.215 97 169.409 93.2719 168.715 91C168.026 88.7435 167.376 87.1763 165.715 85.5C164.201 83.9713 162.858 83.5969 160.806 83.0252M214.715 70L214.791 69.9738M214.715 70C214.741 69.9912 214.766 69.9825 214.791 69.9738M232.215 25.5C233.334 30.0676 233.251 32.7976 233.215 37.5C233.183 41.8134 233.046 44.2673 232.215 48.5C231.43 52.5008 231.155 54.9136 229.215 58.5C227.692 61.3171 226.604 62.8666 224.215 65C221.108 67.7751 218.706 68.6113 214.791 69.9738M232.215 25.5L232.209 25.4739M232.215 25.5C232.213 25.4913 232.211 25.4826 232.209 25.4739M222.215 9.5C224.828 11.5377 226.324 12.7788 228.215 15.5C230.61 18.9466 231.212 21.4042 232.209 25.4739M222.215 9.5L222.188 9.47855M222.215 9.5C222.206 9.49284 222.197 9.48569 222.188 9.47855M118.715 28.5C118.715 30.2682 119.414 31.6999 118.215 33C117.738 33.5177 117.357 33.7111 116.715 34C115.113 34.7212 113.941 34.3305 112.215 34C111.002 33.7677 109.801 33.589 108.715 33C107.616 32.4037 107.189 32.1569 106.715 31C106.345 30.0966 106.53 29.4585 106.715 28.5C107.066 26.6915 107.913 25.8026 109.215 24.5C109.715 24 110.07 23.6889 110.215 23C110.391 22.1669 110.215 21 109.715 20.5C107.858 18.6424 106.671 17.2541 104.715 15.5C102.417 13.4384 100.977 12.3807 98.2153 11C97.2153 10.5 96.4783 10.8285 96.2153 11C95.6256 11.3846 95.0921 11.9053 94.7153 12.5C93.0796 15.0818 92.9519 16.9849 91.2153 19.5C89.566 21.8887 88.5513 23.2768 86.2153 25C85.6488 25.4179 85.4139 25.4127 84.7153 25.5C83.8488 25.6083 83.4419 25.4844 82.7153 25C81.2153 24 81.2153 23 81.2153 23V3H199.215C199.215 3 204.412 2.99364 207.715 3.5C210.857 3.98156 212.757 4.33735 215.715 5.5C218.479 6.58593 219.854 7.65872 222.188 9.47855M118.715 28.5V28.4927M118.715 28.5C118.715 28.4976 118.715 28.4952 118.715 28.4927M160.715 83C158.825 82.4731 157.675 82.6115 155.715 82.5C153.113 82.3518 149.04 82.5 149.04 82.5V148H81.2153L80.7153 65.5H85.7153C85.7153 65.5 86.7153 65.5 87.7153 65C88.7153 64.5 89.2153 64 89.2153 63.5C89.2153 63 88.8451 62.2946 88.7153 61.5C88.4636 59.9583 88.1091 58.9397 88.7153 57.5C88.9259 57 89.3421 55.9366 90.2153 55.5C91.2153 55 92.2153 55 92.7153 55C93.2153 55 94.2718 55.0357 95.2153 55.5C95.7153 55.746 97.2153 56.5 97.7153 57C98.2153 57.5 98.9348 58.3965 99.2153 59.5C99.4559 60.4462 99.5241 61.0738 99.2153 62C98.9066 62.9262 98.4057 63.3096 97.7153 64C97.2153 64.5 95.9257 65.316 95.2153 66.5C94.2891 68.0437 93.6013 69.3077 94.2153 71C94.5483 71.9178 95.0679 72.2692 95.7153 73C96.7153 74.1287 99.9638 75.7708 102.715 77.5C105.239 79.0859 106.664 79.9586 109.215 81.5C110.19 82.0888 111.215 83 111.715 83C112.215 83 113.132 81.2512 113.215 81C113.715 79.5 114.378 77.6913 114.715 77C115.788 74.8011 116.443 73.5897 117.715 71.5C118.814 69.696 119.34 68.6029 120.715 67C122.247 65.2156 123.137 64.1001 125.215 63C125.908 62.6333 127.049 61.9444 127.715 62C128.586 62.0725 129.026 62.4639 129.715 63C130.827 63.8645 131.27 64.6642 131.715 66C132.215 67.5 132.26 68.9006 133.715 69.5C134.618 69.8717 135.281 69.7831 136.215 69.5C137.412 69.1374 137.845 68.3972 138.715 67.5C139.556 66.6338 140.676 64.5259 141.715 62.5C142.593 60.7891 143.544 58.6546 143.715 58C144.115 56.4773 144.9 55.4176 144.215 54C143.672 52.8742 142.832 52.5632 141.715 52C139.275 50.7687 137.142 53.2584 134.715 52C133.849 51.5506 133.271 51.3027 132.715 50.5C132.16 49.6973 132.165 48.3798 132.215 47C132.239 46.3603 132.795 44.5544 133.215 43C134.07 39.8403 135.715 37 135.715 35C135.715 34.3825 135.215 33.5 134.715 33C134.215 32.5 131.146 30.7041 128.986 29.3567C126.825 28.0094 126.041 27.2088 123.715 26C122.941 25.5973 122.089 25 121.215 25C120.598 25 120.218 25.1411 119.715 25.5C118.715 26.2144 118.715 27.983 118.715 28.4927M160.715 83L160.806 83.0252M160.715 83C160.746 83.0084 160.776 83.0168 160.806 83.0252M149.215 26V58M149.215 26C149.215 26 156.715 26 158.215 26M149.215 26H158.215M149.215 58C149.215 58 156.846 58 158.215 58M149.215 58H158.215M158.215 58C159.585 58 161.399 57.4256 163.215 56.5C164.955 55.6134 166.035 55.0556 167.215 53.5C168.007 52.4564 168.319 51.7486 168.715 50.5M168.715 50.5L168.772 50.3213M168.715 50.5C168.734 50.4408 168.753 50.3812 168.772 50.3213M158.215 26C159.715 26 161.429 26.5169 163.215 27.5C165.034 28.5009 166.021 29.3027 167.215 31C167.969 32.0711 168.319 32.7514 168.715 34C169.133 35.3161 169.653 37.0039 169.715 37.5C170.215 41.5 170.215 43.5 169.715 47C169.625 47.6332 169.176 49.0488 168.772 50.3213M246.215 3H314.215V103H374.215V148H246.215V3ZM384.215 3H452.715V148H384.215V3Z" stroke="black"/>
<g filter="url(#filter0_d)">
<path d="M109.606 185.444C109.83 185.444 110.054 185.491 110.278 185.584C110.502 185.659 110.717 185.799 110.922 186.004L114.674 189.952C113.032 192.099 110.969 193.723 108.486 194.824C106.022 195.907 103.101 196.448 99.7222 196.448C96.6236 196.448 93.8422 195.925 91.3782 194.88C88.9329 193.816 86.8516 192.36 85.1342 190.512C83.4356 188.645 82.1289 186.443 81.2142 183.904C80.2996 181.347 79.8422 178.575 79.8422 175.588C79.8422 172.545 80.3649 169.755 81.4102 167.216C82.4556 164.659 83.9116 162.456 85.7782 160.608C87.6636 158.76 89.9129 157.323 92.5262 156.296C95.1396 155.269 98.0236 154.756 101.178 154.756C102.709 154.756 104.146 154.896 105.49 155.176C106.853 155.437 108.122 155.811 109.298 156.296C110.474 156.763 111.557 157.332 112.546 158.004C113.536 158.657 114.413 159.385 115.178 160.188L111.986 164.472C111.781 164.733 111.538 164.976 111.258 165.2C110.978 165.405 110.586 165.508 110.082 165.508C109.746 165.508 109.429 165.433 109.13 165.284C108.832 165.135 108.514 164.957 108.178 164.752C107.842 164.528 107.469 164.295 107.058 164.052C106.666 163.791 106.19 163.557 105.63 163.352C105.089 163.128 104.445 162.941 103.698 162.792C102.97 162.643 102.112 162.568 101.122 162.568C99.4049 162.568 97.8369 162.876 96.4182 163.492C94.9996 164.089 93.7769 164.957 92.7502 166.096C91.7422 167.216 90.9489 168.579 90.3702 170.184C89.8102 171.789 89.5302 173.591 89.5302 175.588C89.5302 177.679 89.8102 179.536 90.3702 181.16C90.9489 182.784 91.7236 184.156 92.6942 185.276C93.6836 186.377 94.8316 187.217 96.1382 187.796C97.4449 188.375 98.8449 188.664 100.338 188.664C101.197 188.664 101.981 188.627 102.69 188.552C103.4 188.459 104.053 188.309 104.65 188.104C105.266 187.899 105.845 187.637 106.386 187.32C106.946 186.984 107.506 186.573 108.066 186.088C108.29 185.901 108.533 185.752 108.794 185.64C109.056 185.509 109.326 185.444 109.606 185.444ZM177.183 175.588C177.183 178.537 176.67 181.281 175.643 183.82C174.635 186.359 173.207 188.571 171.359 190.456C169.511 192.323 167.28 193.788 164.667 194.852C162.072 195.916 159.188 196.448 156.015 196.448C152.842 196.448 149.948 195.916 147.335 194.852C144.722 193.788 142.482 192.323 140.615 190.456C138.767 188.571 137.33 186.359 136.303 183.82C135.295 181.281 134.791 178.537 134.791 175.588C134.791 172.639 135.295 169.895 136.303 167.356C137.33 164.817 138.767 162.615 140.615 160.748C142.482 158.881 144.722 157.416 147.335 156.352C149.948 155.288 152.842 154.756 156.015 154.756C159.188 154.756 162.072 155.297 164.667 156.38C167.28 157.444 169.511 158.909 171.359 160.776C173.207 162.643 174.635 164.845 175.643 167.384C176.67 169.923 177.183 172.657 177.183 175.588ZM167.495 175.588C167.495 173.572 167.234 171.761 166.711 170.156C166.188 168.532 165.432 167.16 164.443 166.04C163.472 164.92 162.278 164.061 160.859 163.464C159.44 162.867 157.826 162.568 156.015 162.568C154.186 162.568 152.552 162.867 151.115 163.464C149.696 164.061 148.492 164.92 147.503 166.04C146.532 167.16 145.786 168.532 145.263 170.156C144.74 171.761 144.479 173.572 144.479 175.588C144.479 177.623 144.74 179.452 145.263 181.076C145.786 182.681 146.532 184.044 147.503 185.164C148.492 186.284 149.696 187.143 151.115 187.74C152.552 188.319 154.186 188.608 156.015 188.608C157.826 188.608 159.44 188.319 160.859 187.74C162.278 187.143 163.472 186.284 164.443 185.164C165.432 184.044 166.188 182.681 166.711 181.076C167.234 179.452 167.495 177.623 167.495 175.588ZM204.612 155.204C205.023 155.204 205.368 155.223 205.648 155.26C205.928 155.297 206.18 155.372 206.404 155.484C206.628 155.577 206.843 155.717 207.048 155.904C207.253 156.091 207.487 156.343 207.748 156.66L227.124 181.16C227.049 180.376 226.993 179.62 226.956 178.892C226.919 178.145 226.9 177.445 226.9 176.792V155.204H235.244V196H230.316C229.588 196 228.972 195.888 228.468 195.664C227.964 195.44 227.479 195.029 227.012 194.432L207.776 170.128C207.832 170.837 207.879 171.537 207.916 172.228C207.953 172.9 207.972 173.535 207.972 174.132V196H199.628V155.204H204.612ZM264.86 155.204C265.271 155.204 265.616 155.223 265.896 155.26C266.176 155.297 266.428 155.372 266.652 155.484C266.876 155.577 267.091 155.717 267.296 155.904C267.501 156.091 267.735 156.343 267.996 156.66L287.372 181.16C287.297 180.376 287.241 179.62 287.204 178.892C287.167 178.145 287.148 177.445 287.148 176.792V155.204H295.492V196H290.564C289.836 196 289.22 195.888 288.716 195.664C288.212 195.44 287.727 195.029 287.26 194.432L268.024 170.128C268.08 170.837 268.127 171.537 268.164 172.228C268.201 172.9 268.22 173.535 268.22 174.132V196H259.876V155.204H264.86ZM346.388 155.204V162.484H329.644V172.004H342.468V179.004H329.644V188.72H346.388V196H320.124V155.204H346.388ZM397.12 185.444C397.344 185.444 397.568 185.491 397.792 185.584C398.016 185.659 398.231 185.799 398.436 186.004L402.188 189.952C400.546 192.099 398.483 193.723 396 194.824C393.536 195.907 390.615 196.448 387.236 196.448C384.138 196.448 381.356 195.925 378.892 194.88C376.447 193.816 374.366 192.36 372.648 190.512C370.95 188.645 369.643 186.443 368.728 183.904C367.814 181.347 367.356 178.575 367.356 175.588C367.356 172.545 367.879 169.755 368.924 167.216C369.97 164.659 371.426 162.456 373.292 160.608C375.178 158.76 377.427 157.323 380.04 156.296C382.654 155.269 385.538 154.756 388.692 154.756C390.223 154.756 391.66 154.896 393.004 155.176C394.367 155.437 395.636 155.811 396.812 156.296C397.988 156.763 399.071 157.332 400.06 158.004C401.05 158.657 401.927 159.385 402.692 160.188L399.5 164.472C399.295 164.733 399.052 164.976 398.772 165.2C398.492 165.405 398.1 165.508 397.596 165.508C397.26 165.508 396.943 165.433 396.644 165.284C396.346 165.135 396.028 164.957 395.692 164.752C395.356 164.528 394.983 164.295 394.572 164.052C394.18 163.791 393.704 163.557 393.144 163.352C392.603 163.128 391.959 162.941 391.212 162.792C390.484 162.643 389.626 162.568 388.636 162.568C386.919 162.568 385.351 162.876 383.932 163.492C382.514 164.089 381.291 164.957 380.264 166.096C379.256 167.216 378.463 168.579 377.884 170.184C377.324 171.789 377.044 173.591 377.044 175.588C377.044 177.679 377.324 179.536 377.884 181.16C378.463 182.784 379.238 184.156 380.208 185.276C381.198 186.377 382.346 187.217 383.652 187.796C384.959 188.375 386.359 188.664 387.852 188.664C388.711 188.664 389.495 188.627 390.204 188.552C390.914 188.459 391.567 188.309 392.164 188.104C392.78 187.899 393.359 187.637 393.9 187.32C394.46 186.984 395.02 186.573 395.58 186.088C395.804 185.901 396.047 185.752 396.308 185.64C396.57 185.509 396.84 185.444 397.12 185.444ZM454.057 155.204V162.708H442.577V196H433.113V162.708H421.633V155.204H454.057Z" fill="url(#paint0_linear)"/>
<path d="M110.278 185.584L110.086 186.046L110.103 186.053L110.12 186.058L110.278 185.584ZM110.922 186.004L111.285 185.659L111.276 185.65L110.922 186.004ZM114.674 189.952L115.071 190.256L115.331 189.917L115.037 189.608L114.674 189.952ZM108.486 194.824L108.687 195.282L108.689 195.281L108.486 194.824ZM91.3782 194.88L91.1787 195.338L91.183 195.34L91.3782 194.88ZM85.1342 190.512L84.7644 190.849L84.768 190.852L85.1342 190.512ZM81.2142 183.904L80.7434 184.072L80.7438 184.073L81.2142 183.904ZM81.4102 167.216L81.8726 167.406L81.8731 167.405L81.4102 167.216ZM85.7782 160.608L85.4282 160.251L85.4265 160.253L85.7782 160.608ZM92.5262 156.296L92.3434 155.831L92.3434 155.831L92.5262 156.296ZM105.49 155.176L105.388 155.666L105.396 155.667L105.49 155.176ZM109.298 156.296L109.107 156.758L109.114 156.761L109.298 156.296ZM112.546 158.004L112.265 158.418L112.271 158.421L112.546 158.004ZM115.178 160.188L115.579 160.487L115.831 160.148L115.54 159.843L115.178 160.188ZM111.986 164.472L112.38 164.781L112.387 164.771L111.986 164.472ZM111.258 165.2L111.554 165.603L111.562 165.597L111.571 165.59L111.258 165.2ZM109.13 165.284L108.907 165.731L108.907 165.731L109.13 165.284ZM108.178 164.752L107.901 165.168L107.909 165.173L107.918 165.179L108.178 164.752ZM107.058 164.052L106.781 164.468L106.792 164.476L106.804 164.482L107.058 164.052ZM105.63 163.352L105.439 163.814L105.449 163.818L105.458 163.821L105.63 163.352ZM103.698 162.792L103.598 163.282L103.6 163.282L103.698 162.792ZM96.4182 163.492L96.6123 163.953L96.6174 163.951L96.4182 163.492ZM92.7502 166.096L92.3789 165.761L92.3786 165.762L92.7502 166.096ZM90.3702 170.184L89.8998 170.014L89.8981 170.019L90.3702 170.184ZM90.3702 181.16L89.8975 181.323L89.8993 181.328L90.3702 181.16ZM92.6942 185.276L92.3163 185.604L92.3223 185.61L92.6942 185.276ZM102.69 188.552L102.743 189.049L102.755 189.048L102.69 188.552ZM104.65 188.104L104.492 187.63L104.488 187.631L104.65 188.104ZM106.386 187.32L106.639 187.751L106.643 187.749L106.386 187.32ZM108.066 186.088L107.746 185.704L107.739 185.71L108.066 186.088ZM108.794 185.64L108.991 186.1L109.005 186.094L109.018 186.087L108.794 185.64ZM109.606 185.944C109.759 185.944 109.918 185.975 110.086 186.046L110.471 185.122C110.191 185.006 109.902 184.944 109.606 184.944V185.944ZM110.12 186.058C110.256 186.103 110.406 186.195 110.569 186.358L111.276 185.65C111.028 185.403 110.749 185.214 110.436 185.11L110.12 186.058ZM110.56 186.348L114.312 190.296L115.037 189.608L111.285 185.66L110.56 186.348ZM114.277 189.648C112.686 191.728 110.69 193.299 108.283 194.367L108.689 195.281C111.248 194.146 113.377 192.469 115.071 190.256L114.277 189.648ZM108.285 194.366C105.898 195.415 103.049 195.948 99.7222 195.948V196.948C103.153 196.948 106.146 196.398 108.687 195.282L108.285 194.366ZM99.7222 195.948C96.6802 195.948 93.9668 195.435 91.5735 194.42L91.183 195.34C93.7177 196.416 96.567 196.948 99.7222 196.948V195.948ZM91.5777 194.422C89.1919 193.383 87.1683 191.966 85.5005 190.172L84.768 190.852C86.5348 192.754 88.674 194.249 91.1788 195.338L91.5777 194.422ZM85.504 190.175C83.8525 188.361 82.5786 186.216 81.6846 183.735L80.7438 184.073C81.6792 186.67 83.0186 188.93 84.7644 190.849L85.504 190.175ZM81.685 183.736C80.7915 181.237 80.3422 178.523 80.3422 175.588H79.3422C79.3422 178.626 79.8076 181.456 80.7435 184.072L81.685 183.736ZM80.3422 175.588C80.3422 172.604 80.8547 169.878 81.8726 167.406L80.9479 167.026C79.8751 169.631 79.3422 172.487 79.3422 175.588H80.3422ZM81.8731 167.405C82.8943 164.907 84.3136 162.762 86.13 160.963L85.4265 160.253C83.5095 162.15 82.0169 164.41 80.9474 167.027L81.8731 167.405ZM86.1282 160.965C87.9627 159.167 90.1541 157.765 92.7091 156.761L92.3434 155.831C89.6717 156.88 87.3645 158.353 85.4282 160.251L86.1282 160.965ZM92.7091 156.761C95.2574 155.76 98.0785 155.256 101.178 155.256V154.256C97.9687 154.256 95.0217 154.778 92.3434 155.831L92.7091 156.761ZM101.178 155.256C102.679 155.256 104.081 155.393 105.388 155.665L105.592 154.687C104.211 154.399 102.739 154.256 101.178 154.256V155.256ZM105.396 155.667C106.729 155.923 107.965 156.287 109.108 156.758L109.489 155.834C108.279 155.335 106.977 154.952 105.584 154.685L105.396 155.667ZM109.114 156.761C110.258 157.215 111.308 157.767 112.265 158.418L112.827 157.59C111.806 156.897 110.691 156.311 109.483 155.831L109.114 156.761ZM112.271 158.421C113.231 159.055 114.079 159.759 114.816 160.533L115.54 159.843C114.747 159.011 113.84 158.259 112.822 157.587L112.271 158.421ZM114.777 159.889L111.585 164.173L112.387 164.771L115.579 160.487L114.777 159.889ZM111.593 164.163C111.413 164.392 111.198 164.608 110.946 164.81L111.571 165.59C111.878 165.344 112.149 165.075 112.379 164.781L111.593 164.163ZM110.963 164.797C110.799 164.917 110.526 165.008 110.082 165.008V166.008C110.646 166.008 111.157 165.894 111.554 165.603L110.963 164.797ZM110.082 165.008C109.823 165.008 109.583 164.951 109.354 164.837L108.907 165.731C109.275 165.915 109.669 166.008 110.082 166.008V165.008ZM109.354 164.837C109.07 164.695 108.765 164.525 108.439 164.325L107.918 165.179C108.264 165.39 108.593 165.575 108.907 165.731L109.354 164.837ZM108.456 164.336C108.111 164.106 107.73 163.868 107.313 163.622L106.804 164.482C107.208 164.721 107.574 164.95 107.901 165.168L108.456 164.336ZM107.336 163.636C106.903 163.348 106.39 163.098 105.802 162.883L105.458 163.821C105.99 164.017 106.429 164.233 106.781 164.468L107.336 163.636ZM105.821 162.89C105.243 162.651 104.566 162.456 103.796 162.302L103.6 163.282C104.324 163.427 104.935 163.605 105.439 163.814L105.821 162.89ZM103.799 162.302C103.029 162.144 102.135 162.068 101.122 162.068V163.068C102.088 163.068 102.912 163.141 103.598 163.282L103.799 162.302ZM101.122 162.068C99.344 162.068 97.7072 162.387 96.2191 163.033L96.6174 163.951C97.9666 163.365 99.4658 163.068 101.122 163.068V162.068ZM96.2242 163.031C94.7382 163.657 93.4549 164.568 92.3789 165.761L93.1216 166.431C94.0989 165.347 95.261 164.522 96.6123 163.953L96.2242 163.031ZM92.3786 165.762C91.322 166.936 90.4976 168.356 89.8999 170.014L90.8406 170.354C91.4002 168.801 92.1625 167.496 93.1219 166.43L92.3786 165.762ZM89.8981 170.019C89.3168 171.686 89.0302 173.544 89.0302 175.588H90.0302C90.0302 173.637 90.3037 171.893 90.8423 170.349L89.8981 170.019ZM89.0302 175.588C89.0302 177.723 89.316 179.637 89.8976 181.323L90.8429 180.997C90.3045 179.435 90.0302 177.635 90.0302 175.588H89.0302ZM89.8993 181.328C90.4954 183.001 91.299 184.43 92.3164 185.603L93.0721 184.949C92.1482 183.882 91.4024 182.567 90.8412 180.992L89.8993 181.328ZM92.3223 185.61C93.3571 186.762 94.5622 187.645 95.9358 188.253L96.3407 187.339C95.1009 186.79 94.0101 185.993 93.0662 184.942L92.3223 185.61ZM95.9358 188.253C97.3091 188.861 98.7784 189.164 100.338 189.164V188.164C98.9114 188.164 97.5807 187.888 96.3407 187.339L95.9358 188.253ZM100.338 189.164C101.211 189.164 102.013 189.126 102.743 189.049L102.638 188.055C101.949 188.127 101.183 188.164 100.338 188.164V189.164ZM102.755 189.048C103.494 188.951 104.18 188.794 104.813 188.577L104.488 187.631C103.926 187.824 103.306 187.967 102.625 188.056L102.755 189.048ZM104.808 188.578C105.456 188.362 106.067 188.087 106.639 187.751L106.133 186.889C105.623 187.188 105.076 187.435 104.492 187.63L104.808 188.578ZM106.643 187.749C107.231 187.396 107.815 186.968 108.394 186.466L107.739 185.71C107.198 186.179 106.661 186.572 106.129 186.891L106.643 187.749ZM108.386 186.472C108.574 186.316 108.775 186.192 108.991 186.1L108.597 185.18C108.29 185.312 108.006 185.487 107.746 185.704L108.386 186.472ZM109.018 186.087C109.213 185.99 109.407 185.944 109.606 185.944V184.944C109.245 184.944 108.898 185.029 108.571 185.193L109.018 186.087ZM175.643 183.82L175.179 183.633L175.178 183.635L175.643 183.82ZM171.359 190.456L171.714 190.808L171.716 190.806L171.359 190.456ZM164.667 194.852L164.478 194.389L164.477 194.389L164.667 194.852ZM147.335 194.852L147.146 195.315L147.146 195.315L147.335 194.852ZM140.615 190.456L140.258 190.806L140.261 190.81L140.615 190.456ZM136.303 183.82L135.838 184.005L135.839 184.007L136.303 183.82ZM136.303 167.356L135.839 167.169L135.838 167.171L136.303 167.356ZM140.615 160.748L140.261 160.394L140.26 160.396L140.615 160.748ZM147.335 156.352L147.523 156.815L147.523 156.815L147.335 156.352ZM164.667 156.38L164.474 156.841L164.478 156.843L164.667 156.38ZM171.359 160.776L171.004 161.128L171.004 161.128L171.359 160.776ZM175.643 167.384L175.178 167.569L175.179 167.571L175.643 167.384ZM166.711 170.156L166.235 170.309L166.235 170.311L166.711 170.156ZM164.443 166.04L164.065 166.367L164.068 166.371L164.443 166.04ZM160.859 163.464L161.053 163.003L161.053 163.003L160.859 163.464ZM151.115 163.464L150.923 163.002L150.921 163.003L151.115 163.464ZM147.503 166.04L147.128 165.709L147.125 165.713L147.503 166.04ZM145.263 170.156L145.738 170.311L145.739 170.309L145.263 170.156ZM145.263 181.076L144.787 181.229L144.787 181.231L145.263 181.076ZM147.503 185.164L147.125 185.491L147.128 185.495L147.503 185.164ZM151.115 187.74L150.921 188.201L150.928 188.204L151.115 187.74ZM160.859 187.74L161.048 188.203L161.053 188.201L160.859 187.74ZM164.443 185.164L164.068 184.833L164.065 184.837L164.443 185.164ZM166.711 181.076L167.186 181.231L167.187 181.229L166.711 181.076ZM176.683 175.588C176.683 178.478 176.18 181.158 175.179 183.633L176.106 184.007C177.159 181.405 177.683 178.597 177.683 175.588H176.683ZM175.178 183.635C174.194 186.115 172.802 188.27 171.002 190.106L171.716 190.806C173.612 188.872 175.076 186.603 176.108 184.005L175.178 183.635ZM171.004 190.104C169.207 191.919 167.034 193.348 164.478 194.389L164.855 195.315C167.527 194.228 169.815 192.726 171.714 190.808L171.004 190.104ZM164.477 194.389C161.95 195.426 159.132 195.948 156.015 195.948V196.948C159.245 196.948 162.194 196.406 164.857 195.315L164.477 194.389ZM156.015 195.948C152.898 195.948 150.07 195.426 147.523 194.389L147.146 195.315C149.827 196.406 152.785 196.948 156.015 196.948V195.948ZM147.523 194.389C144.968 193.348 142.785 191.919 140.968 190.102L140.261 190.81C142.178 192.727 144.476 194.228 147.146 195.315L147.523 194.389ZM140.972 190.106C139.171 188.269 137.77 186.113 136.766 183.633L135.839 184.007C136.89 186.604 138.362 188.872 140.258 190.806L140.972 190.106ZM136.768 183.635C135.785 181.16 135.291 178.479 135.291 175.588H134.291C134.291 178.595 134.805 181.403 135.838 184.005L136.768 183.635ZM135.291 175.588C135.291 172.697 135.785 170.016 136.768 167.541L135.838 167.171C134.805 169.773 134.291 172.581 134.291 175.588H135.291ZM136.766 167.543C137.769 165.064 139.171 162.917 140.97 161.1L140.26 160.396C138.363 162.312 136.89 164.571 135.839 167.169L136.766 167.543ZM140.968 161.102C142.785 159.285 144.968 157.856 147.523 156.815L147.146 155.889C144.476 156.976 142.178 158.477 140.261 160.394L140.968 161.102ZM147.523 156.815C150.07 155.778 152.898 155.256 156.015 155.256V154.256C152.785 154.256 149.827 154.798 147.146 155.889L147.523 156.815ZM156.015 155.256C159.131 155.256 161.948 155.787 164.474 156.841L164.859 155.919C162.196 154.807 159.246 154.256 156.015 154.256V155.256ZM164.478 156.843C167.034 157.884 169.207 159.313 171.004 161.128L171.714 160.424C169.815 158.506 167.527 157.004 164.855 155.917L164.478 156.843ZM171.004 161.128C172.802 162.945 174.194 165.09 175.178 167.569L176.108 167.199C175.076 164.601 173.611 162.341 171.714 160.424L171.004 161.128ZM175.179 167.571C176.18 170.046 176.683 172.717 176.683 175.588H177.683C177.683 172.598 177.159 169.799 176.106 167.197L175.179 167.571ZM167.995 175.588C167.995 173.529 167.728 171.665 167.186 170.001L166.235 170.311C166.739 171.858 166.995 173.615 166.995 175.588H167.995ZM167.187 170.003C166.646 168.322 165.859 166.887 164.818 165.709L164.068 166.371C165.006 167.433 165.73 168.742 166.235 170.309L167.187 170.003ZM164.821 165.713C163.798 164.532 162.54 163.629 161.053 163.003L160.665 163.925C162.016 164.494 163.147 165.308 164.065 166.367L164.821 165.713ZM161.053 163.003C159.563 162.376 157.881 162.068 156.015 162.068V163.068C157.771 163.068 159.317 163.357 160.665 163.925L161.053 163.003ZM156.015 162.068C154.131 162.068 152.431 162.376 150.923 163.002L151.307 163.926C152.674 163.358 154.24 163.068 156.015 163.068V162.068ZM150.921 163.003C149.435 163.629 148.169 164.531 147.128 165.709L147.878 166.371C148.816 165.309 149.957 164.494 151.309 163.925L150.921 163.003ZM147.125 165.713C146.104 166.891 145.327 168.324 144.787 170.003L145.739 170.309C146.244 168.74 146.96 167.429 147.881 166.367L147.125 165.713ZM144.787 170.001C144.246 171.665 143.979 173.529 143.979 175.588H144.979C144.979 173.615 145.235 171.858 145.738 170.311L144.787 170.001ZM143.979 175.588C143.979 177.665 144.246 179.547 144.787 181.229L145.739 180.923C145.235 179.357 144.979 177.58 144.979 175.588H143.979ZM144.787 181.231C145.328 182.891 146.105 184.314 147.125 185.491L147.881 184.837C146.96 183.774 146.243 182.472 145.738 180.921L144.787 181.231ZM147.128 185.495C148.169 186.673 149.435 187.575 150.921 188.201L151.309 187.279C149.957 186.71 148.816 185.895 147.878 184.833L147.128 185.495ZM150.928 188.204C152.435 188.81 154.133 189.108 156.015 189.108V188.108C154.238 188.108 152.67 187.827 151.302 187.276L150.928 188.204ZM156.015 189.108C157.879 189.108 159.559 188.81 161.048 188.203L160.67 187.277C159.321 187.827 157.772 188.108 156.015 188.108V189.108ZM161.053 188.201C162.54 187.575 163.798 186.672 164.821 185.491L164.065 184.837C163.147 185.896 162.016 186.71 160.665 187.279L161.053 188.201ZM164.818 185.495C165.858 184.318 166.645 182.893 167.186 181.231L166.235 180.921C165.731 182.47 165.007 183.77 164.068 184.833L164.818 185.495ZM167.187 181.229C167.728 179.547 167.995 177.665 167.995 175.588H166.995C166.995 177.58 166.739 179.357 166.235 180.923L167.187 181.229ZM205.648 155.26L205.582 155.756L205.582 155.756L205.648 155.26ZM206.404 155.484L206.18 155.931L206.196 155.939L206.212 155.946L206.404 155.484ZM207.748 156.66L208.14 156.35L208.134 156.342L207.748 156.66ZM227.124 181.16L226.732 181.47L227.782 182.798L227.622 181.113L227.124 181.16ZM226.956 178.892L226.457 178.917L226.457 178.918L226.956 178.892ZM226.9 155.204V154.704H226.4V155.204H226.9ZM235.244 155.204H235.744V154.704H235.244V155.204ZM235.244 196V196.5H235.744V196H235.244ZM228.468 195.664L228.671 195.207L228.671 195.207L228.468 195.664ZM227.012 194.432L227.406 194.124L227.404 194.122L227.012 194.432ZM207.776 170.128L208.168 169.818L207.148 168.529L207.278 170.167L207.776 170.128ZM207.916 172.228L207.417 172.255L207.417 172.256L207.916 172.228ZM207.972 196V196.5H208.472V196H207.972ZM199.628 196H199.128V196.5H199.628V196ZM199.628 155.204V154.704H199.128V155.204H199.628ZM204.612 155.704C205.01 155.704 205.331 155.722 205.582 155.756L205.714 154.764C205.405 154.723 205.036 154.704 204.612 154.704V155.704ZM205.582 155.756C205.814 155.787 206.012 155.847 206.18 155.931L206.628 155.037C206.348 154.897 206.042 154.808 205.714 154.764L205.582 155.756ZM206.212 155.946C206.376 156.014 206.543 156.12 206.712 156.274L207.384 155.534C207.143 155.314 206.88 155.141 206.596 155.022L206.212 155.946ZM206.712 156.274C206.893 156.439 207.109 156.671 207.362 156.978L208.134 156.342C207.864 156.014 207.614 155.743 207.384 155.534L206.712 156.274ZM207.356 156.97L226.732 181.47L227.516 180.85L208.14 156.35L207.356 156.97ZM227.622 181.113C227.548 180.335 227.492 179.587 227.455 178.866L226.457 178.918C226.494 179.653 226.551 180.417 226.626 181.207L227.622 181.113ZM227.455 178.867C227.418 178.128 227.4 177.436 227.4 176.792H226.4C226.4 177.455 226.419 178.163 226.457 178.917L227.455 178.867ZM227.4 176.792V155.204H226.4V176.792H227.4ZM226.9 155.704H235.244V154.704H226.9V155.704ZM234.744 155.204V196H235.744V155.204H234.744ZM235.244 195.5H230.316V196.5H235.244V195.5ZM230.316 195.5C229.637 195.5 229.094 195.395 228.671 195.207L228.265 196.121C228.85 196.381 229.539 196.5 230.316 196.5V195.5ZM228.671 195.207C228.265 195.026 227.84 194.68 227.406 194.124L226.618 194.74C227.117 195.379 227.663 195.854 228.265 196.121L228.671 195.207ZM227.404 194.122L208.168 169.818L207.384 170.438L226.62 194.742L227.404 194.122ZM207.278 170.167C207.333 170.873 207.38 171.569 207.417 172.255L208.415 172.201C208.378 171.506 208.331 170.802 208.274 170.089L207.278 170.167ZM207.417 172.256C207.454 172.92 207.472 173.545 207.472 174.132H208.472C208.472 173.524 208.453 172.88 208.415 172.2L207.417 172.256ZM207.472 174.132V196H208.472V174.132H207.472ZM207.972 195.5H199.628V196.5H207.972V195.5ZM200.128 196V155.204H199.128V196H200.128ZM199.628 155.704H204.612V154.704H199.628V155.704ZM265.896 155.26L265.83 155.756L265.83 155.756L265.896 155.26ZM266.652 155.484L266.429 155.931L266.444 155.939L266.46 155.946L266.652 155.484ZM267.996 156.66L268.388 156.35L268.382 156.342L267.996 156.66ZM287.372 181.16L286.98 181.47L288.03 182.798L287.87 181.113L287.372 181.16ZM287.204 178.892L286.705 178.917L286.705 178.918L287.204 178.892ZM287.148 155.204V154.704H286.648V155.204H287.148ZM295.492 155.204H295.992V154.704H295.492V155.204ZM295.492 196V196.5H295.992V196H295.492ZM288.716 195.664L288.919 195.207L288.919 195.207L288.716 195.664ZM287.26 194.432L287.654 194.124L287.652 194.122L287.26 194.432ZM268.024 170.128L268.416 169.818L267.396 168.529L267.526 170.167L268.024 170.128ZM268.164 172.228L267.665 172.255L267.665 172.256L268.164 172.228ZM268.22 196V196.5H268.72V196H268.22ZM259.876 196H259.376V196.5H259.876V196ZM259.876 155.204V154.704H259.376V155.204H259.876ZM264.86 155.704C265.258 155.704 265.579 155.722 265.83 155.756L265.962 154.764C265.653 154.723 265.284 154.704 264.86 154.704V155.704ZM265.83 155.756C266.062 155.787 266.26 155.847 266.429 155.931L266.876 155.037C266.596 154.897 266.29 154.808 265.962 154.764L265.83 155.756ZM266.46 155.946C266.624 156.014 266.791 156.12 266.96 156.274L267.632 155.534C267.391 155.314 267.128 155.141 266.844 155.022L266.46 155.946ZM266.96 156.274C267.141 156.439 267.358 156.671 267.61 156.978L268.382 156.342C268.112 156.014 267.862 155.743 267.632 155.534L266.96 156.274ZM267.604 156.97L286.98 181.47L287.764 180.85L268.388 156.35L267.604 156.97ZM287.87 181.113C287.796 180.335 287.74 179.587 287.703 178.866L286.705 178.918C286.743 179.653 286.799 180.417 286.874 181.207L287.87 181.113ZM287.703 178.867C287.667 178.128 287.648 177.436 287.648 176.792H286.648C286.648 177.455 286.667 178.163 286.705 178.917L287.703 178.867ZM287.648 176.792V155.204H286.648V176.792H287.648ZM287.148 155.704H295.492V154.704H287.148V155.704ZM294.992 155.204V196H295.992V155.204H294.992ZM295.492 195.5H290.564V196.5H295.492V195.5ZM290.564 195.5C289.885 195.5 289.342 195.395 288.919 195.207L288.513 196.121C289.098 196.381 289.787 196.5 290.564 196.5V195.5ZM288.919 195.207C288.513 195.026 288.088 194.68 287.654 194.124L286.866 194.74C287.365 195.379 287.911 195.854 288.513 196.121L288.919 195.207ZM287.652 194.122L268.416 169.818L267.632 170.438L286.868 194.742L287.652 194.122ZM267.526 170.167C267.581 170.873 267.628 171.569 267.665 172.255L268.663 172.201C268.626 171.506 268.579 170.802 268.523 170.089L267.526 170.167ZM267.665 172.256C267.702 172.92 267.72 173.545 267.72 174.132H268.72C268.72 173.524 268.701 172.88 268.663 172.2L267.665 172.256ZM267.72 174.132V196H268.72V174.132H267.72ZM268.22 195.5H259.876V196.5H268.22V195.5ZM260.376 196V155.204H259.376V196H260.376ZM259.876 155.704H264.86V154.704H259.876V155.704ZM346.388 155.204H346.888V154.704H346.388V155.204ZM346.388 162.484V162.984H346.888V162.484H346.388ZM329.644 162.484V161.984H329.144V162.484H329.644ZM329.644 172.004H329.144V172.504H329.644V172.004ZM342.468 172.004H342.968V171.504H342.468V172.004ZM342.468 179.004V179.504H342.968V179.004H342.468ZM329.644 179.004V178.504H329.144V179.004H329.644ZM329.644 188.72H329.144V189.22H329.644V188.72ZM346.388 188.72H346.888V188.22H346.388V188.72ZM346.388 196V196.5H346.888V196H346.388ZM320.124 196H319.624V196.5H320.124V196ZM320.124 155.204V154.704H319.624V155.204H320.124ZM345.888 155.204V162.484H346.888V155.204H345.888ZM346.388 161.984H329.644V162.984H346.388V161.984ZM329.144 162.484V172.004H330.144V162.484H329.144ZM329.644 172.504H342.468V171.504H329.644V172.504ZM341.968 172.004V179.004H342.968V172.004H341.968ZM342.468 178.504H329.644V179.504H342.468V178.504ZM329.144 179.004V188.72H330.144V179.004H329.144ZM329.644 189.22H346.388V188.22H329.644V189.22ZM345.888 188.72V196H346.888V188.72H345.888ZM346.388 195.5H320.124V196.5H346.388V195.5ZM320.624 196V155.204H319.624V196H320.624ZM320.124 155.704H346.388V154.704H320.124V155.704ZM397.792 185.584L397.6 186.046L397.617 186.053L397.634 186.058L397.792 185.584ZM398.436 186.004L398.799 185.659L398.79 185.65L398.436 186.004ZM402.188 189.952L402.585 190.256L402.845 189.917L402.551 189.608L402.188 189.952ZM396 194.824L396.201 195.282L396.203 195.281L396 194.824ZM378.892 194.88L378.693 195.338L378.697 195.34L378.892 194.88ZM372.648 190.512L372.279 190.849L372.282 190.852L372.648 190.512ZM368.728 183.904L368.258 184.072L368.258 184.073L368.728 183.904ZM368.924 167.216L369.387 167.406L369.387 167.405L368.924 167.216ZM373.292 160.608L372.942 160.251L372.941 160.253L373.292 160.608ZM380.04 156.296L379.858 155.831L379.858 155.831L380.04 156.296ZM393.004 155.176L392.902 155.666L392.91 155.667L393.004 155.176ZM396.812 156.296L396.622 156.758L396.628 156.761L396.812 156.296ZM400.06 158.004L399.779 158.418L399.785 158.421L400.06 158.004ZM402.692 160.188L403.093 160.487L403.345 160.148L403.054 159.843L402.692 160.188ZM399.5 164.472L399.894 164.781L399.901 164.771L399.5 164.472ZM398.772 165.2L399.068 165.603L399.076 165.597L399.085 165.59L398.772 165.2ZM396.644 165.284L396.421 165.731L396.421 165.731L396.644 165.284ZM395.692 164.752L395.415 165.168L395.423 165.173L395.432 165.179L395.692 164.752ZM394.572 164.052L394.295 164.468L394.306 164.476L394.318 164.482L394.572 164.052ZM393.144 163.352L392.953 163.814L392.963 163.818L392.972 163.821L393.144 163.352ZM391.212 162.792L391.112 163.282L391.114 163.282L391.212 162.792ZM383.932 163.492L384.126 163.953L384.131 163.951L383.932 163.492ZM380.264 166.096L379.893 165.761L379.893 165.762L380.264 166.096ZM377.884 170.184L377.414 170.014L377.412 170.019L377.884 170.184ZM377.884 181.16L377.412 181.323L377.413 181.328L377.884 181.16ZM380.208 185.276L379.83 185.604L379.836 185.61L380.208 185.276ZM390.204 188.552L390.257 189.049L390.27 189.048L390.204 188.552ZM392.164 188.104L392.006 187.63L392.002 187.631L392.164 188.104ZM393.9 187.32L394.153 187.751L394.158 187.749L393.9 187.32ZM395.58 186.088L395.26 185.704L395.253 185.71L395.58 186.088ZM396.308 185.64L396.505 186.1L396.519 186.094L396.532 186.087L396.308 185.64ZM397.12 185.944C397.273 185.944 397.432 185.975 397.6 186.046L397.985 185.122C397.705 185.006 397.416 184.944 397.12 184.944V185.944ZM397.634 186.058C397.77 186.103 397.92 186.195 398.083 186.358L398.79 185.65C398.542 185.403 398.263 185.214 397.95 185.11L397.634 186.058ZM398.074 186.348L401.826 190.296L402.551 189.608L398.799 185.66L398.074 186.348ZM401.791 189.648C400.2 191.728 398.204 193.299 395.798 194.367L396.203 195.281C398.762 194.146 400.892 192.469 402.585 190.256L401.791 189.648ZM395.799 194.366C393.413 195.415 390.563 195.948 387.236 195.948V196.948C390.667 196.948 393.66 196.398 396.201 195.282L395.799 194.366ZM387.236 195.948C384.194 195.948 381.481 195.435 379.088 194.42L378.697 195.34C381.232 196.416 384.081 196.948 387.236 196.948V195.948ZM379.092 194.422C376.706 193.383 374.682 191.966 373.015 190.172L372.282 190.852C374.049 192.754 376.188 194.249 378.693 195.338L379.092 194.422ZM373.018 190.175C371.367 188.361 370.093 186.216 369.199 183.735L368.258 184.073C369.193 186.67 370.533 188.93 372.279 190.849L373.018 190.175ZM369.199 183.736C368.306 181.237 367.856 178.523 367.856 175.588H366.856C366.856 178.626 367.322 181.456 368.258 184.072L369.199 183.736ZM367.856 175.588C367.856 172.604 368.369 169.878 369.387 167.406L368.462 167.026C367.389 169.631 366.856 172.487 366.856 175.588H367.856ZM369.387 167.405C370.408 164.907 371.828 162.762 373.644 160.963L372.941 160.253C371.024 162.15 369.531 164.41 368.462 167.027L369.387 167.405ZM373.642 160.965C375.477 159.167 377.668 157.765 380.223 156.761L379.858 155.831C377.186 156.88 374.879 158.353 372.942 160.251L373.642 160.965ZM380.223 156.761C382.771 155.76 385.593 155.256 388.692 155.256V154.256C385.483 154.256 382.536 154.778 379.858 155.831L380.223 156.761ZM388.692 155.256C390.193 155.256 391.595 155.393 392.902 155.665L393.106 154.687C391.725 154.399 390.253 154.256 388.692 154.256V155.256ZM392.91 155.667C394.243 155.923 395.479 156.287 396.622 156.758L397.003 155.834C395.793 155.335 394.491 154.952 393.099 154.685L392.91 155.667ZM396.628 156.761C397.772 157.215 398.822 157.767 399.779 158.418L400.341 157.59C399.32 156.897 398.205 156.311 396.997 155.831L396.628 156.761ZM399.785 158.421C400.745 159.055 401.593 159.759 402.33 160.533L403.054 159.843C402.261 159.011 401.354 158.259 400.336 157.587L399.785 158.421ZM402.291 159.889L399.099 164.173L399.901 164.771L403.093 160.487L402.291 159.889ZM399.107 164.163C398.927 164.392 398.712 164.608 398.46 164.81L399.085 165.59C399.392 165.344 399.663 165.075 399.893 164.781L399.107 164.163ZM398.477 164.797C398.313 164.917 398.04 165.008 397.596 165.008V166.008C398.161 166.008 398.671 165.894 399.068 165.603L398.477 164.797ZM397.596 165.008C397.337 165.008 397.097 164.951 396.868 164.837L396.421 165.731C396.789 165.915 397.183 166.008 397.596 166.008V165.008ZM396.868 164.837C396.584 164.695 396.279 164.525 395.953 164.325L395.432 165.179C395.778 165.39 396.107 165.575 396.421 165.731L396.868 164.837ZM395.97 164.336C395.625 164.106 395.244 163.868 394.827 163.622L394.318 164.482C394.722 164.721 395.088 164.95 395.415 165.168L395.97 164.336ZM394.85 163.636C394.418 163.348 393.904 163.098 393.316 162.883L392.972 163.821C393.504 164.017 393.943 164.233 394.295 164.468L394.85 163.636ZM393.336 162.89C392.757 162.651 392.08 162.456 391.31 162.302L391.114 163.282C391.838 163.427 392.449 163.605 392.953 163.814L393.336 162.89ZM391.313 162.302C390.543 162.144 389.649 162.068 388.636 162.068V163.068C389.602 163.068 390.426 163.141 391.112 163.282L391.313 162.302ZM388.636 162.068C386.858 162.068 385.221 162.387 383.733 163.033L384.131 163.951C385.481 163.365 386.98 163.068 388.636 163.068V162.068ZM383.738 163.031C382.252 163.657 380.969 164.568 379.893 165.761L380.636 166.431C381.613 165.347 382.775 164.522 384.126 163.953L383.738 163.031ZM379.893 165.762C378.836 166.936 378.012 168.356 377.414 170.014L378.355 170.354C378.914 168.801 379.677 167.496 380.636 166.43L379.893 165.762ZM377.412 170.019C376.831 171.686 376.544 173.544 376.544 175.588H377.544C377.544 173.637 377.818 171.893 378.356 170.349L377.412 170.019ZM376.544 175.588C376.544 177.723 376.83 179.637 377.412 181.323L378.357 180.997C377.819 179.435 377.544 177.635 377.544 175.588H376.544ZM377.413 181.328C378.01 183.001 378.813 184.43 379.83 185.603L380.586 184.949C379.662 183.882 378.916 182.567 378.355 180.992L377.413 181.328ZM379.836 185.61C380.871 186.762 382.076 187.645 383.45 188.253L383.855 187.339C382.615 186.79 381.524 185.993 380.58 184.942L379.836 185.61ZM383.45 188.253C384.823 188.861 386.292 189.164 387.852 189.164V188.164C386.426 188.164 385.095 187.888 383.855 187.339L383.45 188.253ZM387.852 189.164C388.725 189.164 389.527 189.126 390.257 189.049L390.152 188.055C389.463 188.127 388.697 188.164 387.852 188.164V189.164ZM390.27 189.048C391.008 188.951 391.694 188.794 392.327 188.577L392.002 187.631C391.44 187.824 390.82 187.967 390.139 188.056L390.27 189.048ZM392.322 188.578C392.97 188.362 393.581 188.087 394.153 187.751L393.647 186.889C393.137 187.188 392.59 187.435 392.006 187.63L392.322 188.578ZM394.158 187.749C394.745 187.396 395.329 186.968 395.908 186.466L395.253 185.71C394.712 186.179 394.175 186.572 393.643 186.891L394.158 187.749ZM395.9 186.472C396.088 186.316 396.29 186.192 396.505 186.1L396.111 185.18C395.804 185.312 395.52 185.487 395.26 185.704L395.9 186.472ZM396.532 186.087C396.727 185.99 396.921 185.944 397.12 185.944V184.944C396.759 184.944 396.412 185.029 396.085 185.193L396.532 186.087ZM454.057 155.204H454.557V154.704H454.057V155.204ZM454.057 162.708V163.208H454.557V162.708H454.057ZM442.577 162.708V162.208H442.077V162.708H442.577ZM442.577 196V196.5H443.077V196H442.577ZM433.113 196H432.613V196.5H433.113V196ZM433.113 162.708H433.613V162.208H433.113V162.708ZM421.633 162.708H421.133V163.208H421.633V162.708ZM421.633 155.204V154.704H421.133V155.204H421.633ZM453.557 155.204V162.708H454.557V155.204H453.557ZM454.057 162.208H442.577V163.208H454.057V162.208ZM442.077 162.708V196H443.077V162.708H442.077ZM442.577 195.5H433.113V196.5H442.577V195.5ZM433.613 196V162.708H432.613V196H433.613ZM433.113 162.208H421.633V163.208H433.113V162.208ZM422.133 162.708V155.204H421.133V162.708H422.133ZM421.633 155.704H454.057V154.704H421.633V155.704Z" fill="#464646" fill-opacity="0.1"/>
</g>
<path d="M470.4 23.8164L469.912 23.9249L469.912 23.9249L470.4 23.8164ZM471.2 26.3664L470.738 26.5587L470.867 26.8664H471.2V26.3664ZM476.725 26.3664V26.8664H477.225V26.3664H476.725ZM482.875 21.0664H483.375V20.5664H482.875V21.0664ZM482.875 34.0164V34.5164H483.375V34.0164H482.875ZM467.5 34.0164L467.097 34.3118L467.246 34.5164H467.5V34.0164ZM465.725 31.0914L465.275 31.309L465.276 31.3121L465.725 31.0914ZM464.525 27.8664L465.007 27.7337L465.007 27.7319L464.525 27.8664ZM463.825 24.2164L464.322 24.1591L464.322 24.1584L463.825 24.2164ZM465 12.6664L464.539 12.4731L464.538 12.476L465 12.6664ZM468.9 6.76641L468.548 6.41106L468.545 6.41463L468.9 6.76641ZM474.8 2.86641L474.611 2.40356L474.607 2.40527L474.8 2.86641ZM489.7 2.81641L489.515 3.28112L489.517 3.28158L489.7 2.81641ZM495.6 6.66641L495.957 6.3164L495.955 6.31463L495.6 6.66641ZM499.45 12.7414L499.917 12.5619L499.916 12.5608L499.45 12.7414ZM500.45 24.9914L500.941 25.0836L500.941 25.0836L500.45 24.9914ZM499.425 28.6664L498.959 28.4855L498.958 28.4878L499.425 28.6664ZM497.875 31.7664L498.296 32.0368L497.875 31.7664ZM495.925 34.2664L495.65 34.6841L495.999 34.9133L496.287 34.6116L495.925 34.2664ZM492.2 31.8164L491.923 32.2324L491.925 32.2341L492.2 31.8164ZM491.375 30.9664L491.804 30.7091L491.798 30.6994L491.375 30.9664ZM491.575 28.3664L491.999 28.6315L492.004 28.6237L491.575 28.3664ZM492.6 26.4664L492.155 26.2377L492.151 26.2453L492.148 26.2529L492.6 26.4664ZM493.325 24.6664L493.804 24.8089L493.804 24.8089L493.325 24.6664ZM493 16.1414L492.541 16.3406L492.544 16.3456L493 16.1414ZM490.65 12.8914L490.981 12.517L490.978 12.514L490.65 12.8914ZM486.975 10.8414L486.814 11.3146L486.815 11.3152L486.975 10.8414ZM477.075 10.9164L477.243 11.3875L477.243 11.3875L477.075 10.9164ZM473.275 13.1164L472.94 12.7453L472.937 12.7483L473.275 13.1164ZM470.9 16.4664L470.44 16.2694L470.437 16.2766L470.9 16.4664ZM469.6 20.7164C469.6 21.9104 469.702 22.9813 469.912 23.9249L470.888 23.7079C470.698 22.8515 470.6 21.8557 470.6 20.7164H469.6ZM469.912 23.9249C470.118 24.8517 470.393 25.7299 470.738 26.5587L471.662 26.1741C471.34 25.4029 471.082 24.5811 470.888 23.7079L469.912 23.9249ZM471.2 26.8664H476.725V25.8664H471.2V26.8664ZM477.225 26.3664V22.7664H476.225V26.3664H477.225ZM477.225 22.7664C477.225 22.3221 477.341 22.0422 477.514 21.8597L476.786 21.1731C476.392 21.5906 476.225 22.1441 476.225 22.7664H477.225ZM477.514 21.8597C477.697 21.6652 477.921 21.5664 478.225 21.5664V20.5664C477.662 20.5664 477.169 20.7676 476.786 21.1731L477.514 21.8597ZM478.225 21.5664H482.875V20.5664H478.225V21.5664ZM482.375 21.0664V34.0164H483.375V21.0664H482.375ZM482.875 33.5164H467.5V34.5164H482.875V33.5164ZM467.903 33.721C467.237 32.8107 466.661 31.8607 466.174 30.8707L465.276 31.3121C465.789 32.3555 466.396 33.3554 467.097 34.3118L467.903 33.721ZM466.175 30.8738C465.706 29.903 465.316 28.8566 465.007 27.7337L464.043 27.9991C464.367 29.1762 464.777 30.2798 465.275 31.309L466.175 30.8738ZM465.007 27.7319C464.698 26.6265 464.469 25.4358 464.322 24.1591L463.328 24.2737C463.481 25.597 463.719 26.8397 464.043 28.001L465.007 27.7319ZM464.322 24.1584C464.174 22.8969 464.1 21.5331 464.1 20.0664H463.1C463.1 21.5664 463.176 22.9693 463.328 24.2745L464.322 24.1584ZM464.1 20.0664C464.1 17.4593 464.556 15.0579 465.462 12.8568L464.538 12.476C463.577 14.8082 463.1 17.3402 463.1 20.0664H464.1ZM465.461 12.8597C466.388 10.6493 467.653 8.73712 469.255 7.11818L468.545 6.41463C466.847 8.12903 465.512 10.1502 464.539 12.4731L465.461 12.8597ZM469.252 7.12173C470.871 5.51898 472.783 4.25397 474.993 3.32754L474.607 2.40527C472.284 3.37885 470.263 4.71383 468.548 6.41108L469.252 7.12173ZM474.989 3.32923C477.208 2.42238 479.618 1.96641 482.225 1.96641V0.966406C479.499 0.966406 476.959 1.44377 474.611 2.40358L474.989 3.32923ZM482.225 1.96641C484.886 1.96641 487.314 2.40694 489.515 3.28111L489.885 2.3517C487.553 1.42587 484.998 0.966406 482.225 0.966406V1.96641ZM489.517 3.28158C491.738 4.15733 493.646 5.40313 495.245 7.01818L495.955 6.31463C494.254 4.59635 492.228 3.27548 489.883 2.35124L489.517 3.28158ZM495.243 7.01641C496.842 8.64764 498.09 10.6137 498.984 12.922L499.916 12.5608C498.977 10.1358 497.658 8.05184 495.957 6.31641L495.243 7.01641ZM498.983 12.9209C499.875 15.2391 500.325 17.8354 500.325 20.7164H501.325C501.325 17.7307 500.858 15.0104 499.917 12.5619L498.983 12.9209ZM500.325 20.7164C500.325 22.2057 500.202 23.5996 499.959 24.8993L500.941 25.0836C501.198 23.7165 501.325 22.2604 501.325 20.7164H500.325ZM499.959 24.8993C499.714 26.2062 499.38 27.4011 498.959 28.4855L499.891 28.8473C500.337 27.6984 500.686 26.4433 500.941 25.0836L499.959 24.8993ZM498.958 28.4878C498.536 29.592 498.034 30.5942 497.454 31.496L498.296 32.0368C498.916 31.072 499.448 30.0075 499.892 28.845L498.958 28.4878ZM497.454 31.496C496.87 32.4051 496.239 33.2129 495.563 33.9212L496.287 34.6116C497.011 33.8532 497.68 32.9944 498.296 32.0368L497.454 31.496ZM496.2 33.8487L492.475 31.3987L491.925 32.2341L495.65 34.6841L496.2 33.8487ZM492.477 31.4004C492.184 31.2047 491.963 30.9739 491.804 30.7092L490.946 31.2237C491.187 31.6256 491.516 31.9615 491.923 32.2324L492.477 31.4004ZM491.798 30.6994C491.649 30.4646 491.575 30.2076 491.575 29.9164H490.575C490.575 30.3919 490.701 30.8349 490.952 31.2334L491.798 30.6994ZM491.575 29.9164C491.575 29.5315 491.703 29.1056 491.999 28.6314L491.151 28.1014C490.781 28.6939 490.575 29.3013 490.575 29.9164H491.575ZM492.004 28.6237C492.411 27.9451 492.761 27.2971 493.052 26.6799L492.148 26.2529C491.873 26.8357 491.539 27.4543 491.146 28.1092L492.004 28.6237ZM493.045 26.6951C493.359 26.0847 493.612 25.4559 493.804 24.8089L492.846 24.5239C492.671 25.1103 492.441 25.6815 492.155 26.2377L493.045 26.6951ZM493.804 24.8089C493.996 24.1636 494.135 23.4861 494.221 22.7769L493.229 22.6559C493.148 23.3134 493.021 23.9358 492.846 24.5239L493.804 24.8089ZM494.221 22.7769C494.308 22.0695 494.35 21.2822 494.35 20.4164H493.35C493.35 21.2507 493.309 21.9966 493.229 22.6559L494.221 22.7769ZM494.35 20.4164C494.35 18.7726 494.056 17.2766 493.456 15.9372L492.544 16.3456C493.078 17.5396 493.35 18.8935 493.35 20.4164H494.35ZM493.459 15.9423C492.88 14.6098 492.054 13.4663 490.981 12.517L490.319 13.2658C491.28 14.1165 492.02 15.1397 492.541 16.3405L493.459 15.9423ZM490.978 12.514C489.906 11.5829 488.622 10.8692 487.135 10.3676L486.815 11.3152C488.194 11.7802 489.36 12.4332 490.322 13.2688L490.978 12.514ZM487.136 10.3682C485.66 9.86441 484.021 9.61641 482.225 9.61641V10.6164C483.929 10.6164 485.457 10.8517 486.814 11.3146L487.136 10.3682ZM482.225 9.61641C480.246 9.61641 478.471 9.88924 476.907 10.4453L477.243 11.3875C478.679 10.8769 480.337 10.6164 482.225 10.6164V9.61641ZM476.907 10.4453C475.354 10.9975 474.028 11.7621 472.94 12.7454L473.61 13.4875C474.588 12.604 475.796 11.902 477.243 11.3875L476.907 10.4453ZM472.937 12.7483C471.852 13.7459 471.018 14.9208 470.44 16.2694L471.36 16.6634C471.882 15.4454 472.632 14.3869 473.613 13.4845L472.937 12.7483ZM470.437 16.2766C469.877 17.6421 469.6 19.124 469.6 20.7164H470.6C470.6 19.2422 470.856 17.8907 471.363 16.6562L470.437 16.2766ZM470.75 48.1621V47.6621H470.25V48.1621H470.75ZM470.75 61.6621V62.1621H471.25V61.6621H470.75ZM464 61.6621H463.5V62.1621H464V61.6621ZM464 39.7121V39.2121H463.5V39.7121H464ZM500.425 39.7121H500.925V39.2121H500.425V39.7121ZM500.425 48.1621V48.6621H500.925V48.1621H500.425ZM470.25 48.1621V61.6621H471.25V48.1621H470.25ZM470.75 61.1621H464V62.1621H470.75V61.1621ZM464.5 61.6621V39.7121H463.5V61.6621H464.5ZM464 40.2121H500.425V39.2121H464V40.2121ZM499.925 39.7121V48.1621H500.925V39.7121H499.925ZM500.425 47.6621H470.75V48.6621H500.425V47.6621ZM474.875 98.7629L475.062 98.2994L475.06 98.2982L474.875 98.7629ZM468.95 94.9379L468.598 95.2932L468.6 95.295L468.95 94.9379ZM465.025 88.9629L465.488 88.7743L465.488 88.7732L465.025 88.9629ZM465.025 73.4879L464.562 73.2993L464.562 73.2993L465.025 73.4879ZM468.95 67.4879L468.6 67.1308L468.596 67.1343L468.95 67.4879ZM474.875 63.6379L474.69 63.1732L474.688 63.1744L474.875 63.6379ZM489.575 63.6379L489.762 63.1744L489.76 63.1732L489.575 63.6379ZM495.475 67.4879L495.829 67.1343L495.827 67.1326L495.475 67.4879ZM499.4 73.4879L498.937 73.6764L498.937 73.6764L499.4 73.4879ZM499.375 88.9629L498.914 88.7703L498.912 88.7743L499.375 88.9629ZM495.45 94.9379L495.098 94.5826L495.098 94.5826L495.45 94.9379ZM489.55 98.7629L489.365 98.2982L489.363 98.2994L489.55 98.7629ZM487.075 90.7879L486.922 90.3119L486.92 90.3125L487.075 90.7879ZM490.75 88.7629L490.423 88.385L490.419 88.3882L490.75 88.7629ZM493.05 85.5629L493.511 85.7569L493.511 85.7569L493.05 85.5629ZM493.05 76.8629L493.512 76.671L493.511 76.6689L493.05 76.8629ZM490.75 73.6379L491.081 73.2631L491.077 73.26L490.75 73.6379ZM487.075 71.6379L486.92 72.1133L486.922 72.1138L487.075 71.6379ZM477.325 71.6379L477.172 71.1619L477.17 71.1625L477.325 71.6379ZM473.675 73.6379L473.348 73.26L473.344 73.2632L473.675 73.6379ZM471.375 76.8629L470.914 76.6688L470.911 76.6762L471.375 76.8629ZM471.375 85.5629L470.912 85.7517L470.914 85.7569L471.375 85.5629ZM473.675 88.7629L474.006 88.3881L474.002 88.385L473.675 88.7629ZM477.325 90.7879L477.17 91.2633L477.172 91.2638L477.325 90.7879ZM482.225 99.6379C479.651 99.6379 477.265 99.1901 475.062 98.2994L474.688 99.2264C477.018 100.169 479.532 100.638 482.225 100.638V99.6379ZM475.06 98.2982C472.852 97.4218 470.934 96.1827 469.3 94.5808L468.6 95.295C470.332 96.9931 472.364 98.3039 474.69 99.2276L475.06 98.2982ZM469.302 94.5826C467.687 92.9835 466.415 91.0498 465.488 88.7743L464.562 89.1514C465.535 91.5426 466.88 93.5923 468.598 95.2932L469.302 94.5826ZM465.488 88.7732C464.565 86.5241 464.1 84.0147 464.1 81.2379H463.1C463.1 84.1278 463.585 86.7683 464.562 89.1526L465.488 88.7732ZM464.1 81.2379C464.1 78.4612 464.565 75.9429 465.488 73.6764L464.562 73.2993C463.585 75.6996 463.1 78.3479 463.1 81.2379H464.1ZM465.488 73.6764C466.415 71.4006 467.687 69.4578 469.304 67.8414L468.596 67.1343C466.879 68.8513 465.535 70.9086 464.562 73.2993L465.488 73.6764ZM469.3 67.845C470.935 66.2424 472.854 64.9945 475.062 64.1014L474.688 63.1744C472.363 64.1146 470.332 65.4333 468.6 67.1308L469.3 67.845ZM475.06 64.1026C477.263 63.2277 479.65 62.7879 482.225 62.7879V61.7879C479.534 61.7879 477.02 62.2481 474.69 63.1732L475.06 64.1026ZM482.225 62.7879C484.8 62.7879 487.187 63.2277 489.39 64.1026L489.76 63.1732C487.43 62.2481 484.916 61.7879 482.225 61.7879V62.7879ZM489.388 64.1014C491.595 64.9943 493.506 66.2418 495.123 67.8432L495.827 67.1326C494.111 65.434 492.088 64.1148 489.762 63.1744L489.388 64.1014ZM495.121 67.8414C496.738 69.4578 498.01 71.4005 498.937 73.6764L499.863 73.2993C498.89 70.9086 497.546 68.8513 495.829 67.1343L495.121 67.8414ZM498.937 73.6764C499.86 75.9429 500.325 78.4612 500.325 81.2379H501.325C501.325 78.3479 500.84 75.6996 499.863 73.2993L498.937 73.6764ZM500.325 81.2379C500.325 84.0136 499.852 86.522 498.914 88.7703L499.836 89.1554C500.832 86.7704 501.325 84.1288 501.325 81.2379H500.325ZM498.912 88.7743C497.985 91.0498 496.713 92.9835 495.098 94.5826L495.802 95.2932C497.52 93.5923 498.865 91.5426 499.838 89.1514L498.912 88.7743ZM495.098 94.5826C493.481 96.1833 491.572 97.422 489.365 98.2982L489.735 99.2276C492.061 98.3038 494.085 96.9925 495.802 95.2932L495.098 94.5826ZM489.363 98.2994C487.16 99.1903 484.782 99.6379 482.225 99.6379V100.638C484.901 100.638 487.407 100.169 489.737 99.2264L489.363 98.2994ZM482.225 91.9879C484.068 91.9879 485.738 91.7491 487.23 91.2633L486.92 90.3125C485.545 90.76 483.982 90.9879 482.225 90.9879V91.9879ZM487.228 91.2638C488.735 90.779 490.023 90.0726 491.081 89.1376L490.419 88.3882C489.477 89.2198 488.315 89.8634 486.922 90.3119L487.228 91.2638ZM491.077 89.1407C492.138 88.2219 492.949 87.0915 493.511 85.7569L492.589 85.3689C492.084 86.5676 491.362 87.5706 490.423 88.385L491.077 89.1407ZM493.511 85.7569C494.074 84.419 494.35 82.9096 494.35 81.2379H493.35C493.35 82.7995 493.093 84.1735 492.589 85.3689L493.511 85.7569ZM494.35 81.2379C494.35 79.5501 494.074 78.0248 493.512 76.671L492.588 77.0548C493.092 78.2676 493.35 79.659 493.35 81.2379H494.35ZM493.511 76.6689C492.949 75.3351 492.139 74.1977 491.081 73.2632L490.419 74.0126C491.361 74.8447 492.084 75.8573 492.589 77.0569L493.511 76.6689ZM491.077 73.26C490.019 72.3431 488.733 71.6461 487.228 71.1619L486.922 72.1138C488.317 72.563 489.481 73.1993 490.423 74.0157L491.077 73.26ZM487.23 71.1625C485.738 70.6767 484.068 70.4379 482.225 70.4379V71.4379C483.982 71.4379 485.545 71.6657 486.92 72.1133L487.23 71.1625ZM482.225 70.4379C480.366 70.4379 478.68 70.6766 477.172 71.1619L477.478 72.1138C478.87 71.6658 480.451 71.4379 482.225 71.4379V70.4379ZM477.17 71.1625C475.682 71.6469 474.405 72.344 473.348 73.26L474.002 74.0157C474.945 73.1985 476.101 72.5622 477.48 72.1133L477.17 71.1625ZM473.344 73.2632C472.286 74.1977 471.476 75.3351 470.914 76.6689L471.836 77.0569C472.341 75.8573 473.064 74.8447 474.006 74.0126L473.344 73.2632ZM470.911 76.6762C470.367 78.0285 470.1 79.5519 470.1 81.2379H471.1C471.1 79.6572 471.35 78.2639 471.839 77.0496L470.911 76.6762ZM470.1 81.2379C470.1 82.9077 470.367 84.4153 470.912 85.7517L471.838 85.374C471.35 84.1772 471.1 82.8014 471.1 81.2379H470.1ZM470.914 85.7569C471.476 87.0915 472.287 88.2219 473.348 89.1407L474.002 88.385C473.063 87.5706 472.341 86.5676 471.836 85.3689L470.914 85.7569ZM473.344 89.1376C474.401 90.0717 475.68 90.7782 477.17 91.2633L477.48 90.3125C476.103 89.8642 474.949 89.2207 474.006 88.3882L473.344 89.1376ZM477.172 91.2638C478.68 91.7492 480.366 91.9879 482.225 91.9879V90.9879C480.451 90.9879 478.87 90.7599 477.478 90.3119L477.172 91.2638ZM464 104.728V104.228H463.5V104.728H464ZM500.425 104.728H500.925V104.228H500.425V104.728ZM497.75 128.878L498.148 129.181L498.148 129.181L497.75 128.878ZM494.65 131.303L494.46 130.841L494.455 130.843L494.65 131.303ZM488.2 131.728L488.051 132.206L488.054 132.206L488.2 131.728ZM486.075 130.628L486.375 130.228L486.375 130.228L486.075 130.628ZM484.25 128.703L483.837 128.985L483.841 128.99L484.25 128.703ZM482.85 125.878L483.32 125.707L482.755 124.153L482.364 125.76L482.85 125.878ZM480 131.203L479.671 130.827L479.669 130.829L480 131.203ZM470.65 132.028L470.445 132.484L470.445 132.484L470.65 132.028ZM467.15 129.378L466.77 129.703L466.77 129.704L467.15 129.378ZM464.825 125.103L464.349 125.257L464.351 125.261L464.825 125.103ZM479.45 113.178H479.95V112.678H479.45V113.178ZM470.375 113.178V112.678H469.875V113.178H470.375ZM470.8 121.853L471.265 121.669L471.263 121.666L470.8 121.853ZM473.425 124.353L473.297 124.836L473.297 124.836L473.425 124.353ZM476.95 124.303L476.801 123.826L476.787 123.83L476.95 124.303ZM478.3 123.403L477.925 123.073L477.918 123.08L478.3 123.403ZM479.15 121.728L478.669 121.591L478.669 121.591L479.15 121.728ZM485.1 113.178V112.678H484.6V113.178H485.1ZM485.3 120.103L485.792 120.016L485.792 120.016L485.3 120.103ZM486 122.003L486.424 121.738L486.42 121.732L486 122.003ZM487.375 123.203L487.594 122.753L487.583 122.748L487.375 123.203ZM491.725 123.303L491.551 122.834L491.546 122.836L491.725 123.303ZM493.125 122.303L492.73 121.996L492.73 121.996L493.125 122.303ZM493.875 120.578L493.387 120.471L493.386 120.473L493.875 120.578ZM494.1 113.178H494.6V112.678H494.1V113.178ZM464 105.228H500.425V104.228H464V105.228ZM499.925 104.728V118.128H500.925V104.728H499.925ZM499.925 118.128C499.925 120.617 499.694 122.713 499.242 124.425L500.208 124.681C500.689 122.86 500.925 120.673 500.925 118.128H499.925ZM499.242 124.425C498.787 126.147 498.152 127.524 497.352 128.575L498.148 129.181C499.048 127.999 499.73 126.493 500.208 124.681L499.242 124.425ZM497.352 128.575C496.552 129.626 495.589 130.377 494.46 130.841L494.84 131.766C496.144 131.23 497.248 130.363 498.148 129.181L497.352 128.575ZM494.455 130.843C493.308 131.33 492.017 131.578 490.575 131.578V132.578C492.133 132.578 493.559 132.31 494.845 131.763L494.455 130.843ZM490.575 131.578C489.807 131.578 489.064 131.468 488.346 131.25L488.054 132.206C488.869 132.454 489.71 132.578 490.575 132.578V131.578ZM488.349 131.251C487.656 131.035 486.999 130.696 486.375 130.228L485.775 131.028C486.485 131.56 487.244 131.954 488.051 132.206L488.349 131.251ZM486.375 130.228C485.756 129.764 485.183 129.162 484.659 128.416L483.841 128.99C484.417 129.811 485.061 130.492 485.775 131.028L486.375 130.228ZM484.663 128.422C484.158 127.68 483.709 126.777 483.32 125.707L482.38 126.049C482.791 127.179 483.275 128.16 483.837 128.985L484.663 128.422ZM482.364 125.76C481.795 128.1 480.884 129.767 479.671 130.827L480.329 131.58C481.749 130.339 482.738 128.457 483.336 125.996L482.364 125.76ZM479.669 130.829C478.476 131.884 476.926 132.428 474.975 132.428V133.428C477.124 133.428 478.924 132.823 480.331 131.578L479.669 130.829ZM474.975 132.428C473.491 132.428 472.12 132.141 470.855 131.572L470.445 132.484C471.846 133.115 473.359 133.428 474.975 133.428V132.428ZM470.855 131.572C469.592 131.004 468.484 130.166 467.53 129.053L466.77 129.704C467.816 130.923 469.041 131.852 470.445 132.484L470.855 131.572ZM467.53 129.053C466.596 127.96 465.849 126.595 465.299 124.945L464.351 125.261C464.934 127.011 465.738 128.496 466.77 129.703L467.53 129.053ZM465.301 124.949C464.77 123.309 464.5 121.42 464.5 119.278H463.5C463.5 121.503 463.78 123.498 464.349 125.257L465.301 124.949ZM464.5 119.278V104.728H463.5V119.278H464.5ZM479.45 112.678H470.375V113.678H479.45V112.678ZM469.875 113.178V119.128H470.875V113.178H469.875ZM469.875 119.128C469.875 120.281 470.02 121.26 470.337 122.041L471.263 121.666C471.013 121.047 470.875 120.208 470.875 119.128H469.875ZM470.335 122.037C470.639 122.807 471.045 123.437 471.568 123.902L472.232 123.154C471.855 122.819 471.527 122.333 471.265 121.669L470.335 122.037ZM471.568 123.902C472.075 124.352 472.653 124.666 473.297 124.836L473.553 123.87C473.064 123.74 472.625 123.504 472.232 123.154L471.568 123.902ZM473.297 124.836C473.905 124.997 474.523 125.078 475.15 125.078V124.078C474.61 124.078 474.078 124.009 473.553 123.87L473.297 124.836ZM475.15 125.078C475.862 125.078 476.518 124.98 477.113 124.776L476.787 123.83C476.315 123.993 475.771 124.078 475.15 124.078V125.078ZM477.099 124.78C477.725 124.585 478.255 124.231 478.682 123.726L477.918 123.08C477.612 123.442 477.242 123.688 476.801 123.826L477.099 124.78ZM478.675 123.733C479.104 123.247 479.416 122.616 479.631 121.865L478.669 121.591C478.484 122.241 478.23 122.726 477.925 123.073L478.675 123.733ZM479.631 121.865C479.848 121.105 479.95 120.172 479.95 119.078H478.95C478.95 120.118 478.852 120.951 478.669 121.591L479.631 121.865ZM479.95 119.078V113.178H478.95V119.078H479.95ZM484.6 113.178V117.578H485.6V113.178H484.6ZM484.6 117.578C484.6 118.535 484.668 119.406 484.808 120.191L485.792 120.016C485.665 119.3 485.6 118.488 485.6 117.578H484.6ZM484.808 120.191C484.95 120.991 485.203 121.69 485.58 122.274L486.42 121.732C486.13 121.283 485.917 120.715 485.792 120.016L484.808 120.191ZM485.576 122.268C485.962 122.886 486.497 123.351 487.167 123.658L487.583 122.748C487.087 122.522 486.704 122.187 486.424 121.738L485.576 122.268ZM487.157 123.653C487.828 123.979 488.642 124.128 489.575 124.128V123.128C488.741 123.128 488.089 122.994 487.593 122.753L487.157 123.653ZM489.575 124.128C490.479 124.128 491.261 124.016 491.904 123.77L491.546 122.836C491.056 123.024 490.405 123.128 489.575 123.128V124.128ZM491.899 123.772C492.561 123.526 493.107 123.14 493.52 122.61L492.73 121.996C492.443 122.366 492.055 122.647 491.551 122.834L491.899 123.772ZM493.52 122.61C493.926 122.087 494.202 121.438 494.364 120.683L493.386 120.473C493.248 121.118 493.024 121.619 492.73 121.996L493.52 122.61ZM494.363 120.685C494.523 119.957 494.6 119.102 494.6 118.128H493.6C493.6 119.054 493.527 119.833 493.387 120.471L494.363 120.685ZM494.6 118.128V113.178H493.6V118.128H494.6ZM494.1 112.678H485.1V113.678H494.1V112.678ZM464 171.991H463.5V172.72L464.18 172.457L464 171.991ZM464.5 163.616L464.1 163.316L464.094 163.324L464.088 163.332L464.5 163.616ZM465.825 162.641L465.665 162.167L465.662 162.168L465.825 162.641ZM472.175 160.491L472.335 160.964L472.675 160.849V160.491H472.175ZM472.175 146.641H472.675V146.282L472.335 146.167L472.175 146.641ZM465.825 144.491L465.657 144.962L465.665 144.964L465.825 144.491ZM464.55 143.516L464.152 143.818L464.158 143.826L464.55 143.516ZM464 135.141L464.18 134.674L463.5 134.411V135.141H464ZM500.425 149.241H500.925V148.898L500.605 148.774L500.425 149.241ZM500.425 157.891L500.605 158.357L500.925 158.233V157.891H500.425ZM477.925 148.591L478.085 148.117L477.425 147.894V148.591H477.925ZM477.925 158.541H477.425V159.236L478.084 159.015L477.925 158.541ZM487.9 155.191L488.059 155.665L488.062 155.664L487.9 155.191ZM490.125 154.416L489.97 153.94L489.959 153.944L490.125 154.416ZM492.925 153.566L493.061 154.047L494.825 153.547L493.052 153.082L492.925 153.566ZM490.1 152.741L489.945 153.216L489.945 153.216L490.1 152.741ZM487.85 151.941L488.034 151.476L488.022 151.471L488.01 151.467L487.85 151.941ZM464.5 171.991V165.441H463.5V171.991H464.5ZM464.5 165.441C464.5 164.783 464.649 164.281 464.912 163.899L464.088 163.332C463.685 163.917 463.5 164.631 463.5 165.441H464.5ZM464.9 163.916C465.192 163.526 465.552 163.263 465.988 163.113L465.662 162.168C465.031 162.385 464.508 162.772 464.1 163.316L464.9 163.916ZM465.985 163.114L472.335 160.964L472.015 160.017L465.665 162.167L465.985 163.114ZM472.675 160.491V146.641H471.675V160.491H472.675ZM472.335 146.167L465.985 144.017L465.665 144.964L472.015 147.114L472.335 146.167ZM465.993 144.02C465.634 143.891 465.281 143.633 464.942 143.205L464.158 143.826C464.585 144.365 465.083 144.757 465.657 144.961L465.993 144.02ZM464.948 143.213C464.657 142.83 464.5 142.349 464.5 141.741H463.5C463.5 142.532 463.709 143.235 464.152 143.818L464.948 143.213ZM464.5 141.741V135.141H463.5V141.741H464.5ZM463.82 135.607L500.245 149.707L500.605 148.774L464.18 134.674L463.82 135.607ZM499.925 149.241V157.891H500.925V149.241H499.925ZM500.245 157.424L463.82 171.524L464.18 172.457L500.605 158.357L500.245 157.424ZM477.425 148.591V158.541H478.425V148.591H477.425ZM478.084 159.015L488.059 155.665L487.741 154.717L477.766 158.067L478.084 159.015ZM488.062 155.664C488.697 155.446 489.44 155.187 490.291 154.887L489.959 153.944C489.11 154.244 488.37 154.502 487.738 154.718L488.062 155.664ZM490.28 154.891C491.14 154.61 492.067 154.328 493.061 154.047L492.789 153.085C491.783 153.369 490.843 153.655 489.97 153.94L490.28 154.891ZM493.052 153.082C492.043 152.817 491.111 152.545 490.255 152.265L489.945 153.216C490.822 153.503 491.773 153.78 492.798 154.049L493.052 153.082ZM490.255 152.265C489.395 151.984 488.655 151.721 488.034 151.476L487.666 152.406C488.312 152.66 489.071 152.93 489.945 153.216L490.255 152.265ZM488.01 151.467L478.085 148.117L477.765 149.064L487.69 152.414L488.01 151.467ZM470.75 183.956V183.456H470.25V183.956H470.75ZM470.75 197.456V197.956H471.25V197.456H470.75ZM464 197.456H463.5V197.956H464V197.456ZM464 175.506V175.006H463.5V175.506H464ZM500.425 175.506H500.925V175.006H500.425V175.506ZM500.425 183.956V184.456H500.925V183.956H500.425ZM470.25 183.956V197.456H471.25V183.956H470.25ZM470.75 196.956H464V197.956H470.75V196.956ZM464.5 197.456V175.506H463.5V197.456H464.5ZM464 176.006H500.425V175.006H464V176.006ZM499.925 175.506V183.956H500.925V175.506H499.925ZM500.425 183.456H470.75V184.456H500.425V183.456Z" fill="black"/>
<path d="M30.7153 53C32.4618 53 33.7609 52.4669 35.2153 51.5C36.2565 50.8078 36.574 50.0733 37.2153 49C37.7153 48.1632 37.9848 46.8542 37.7153 45.5C37.3102 43.4643 34.9559 43.4391 34.2153 41.5C33.7915 40.3904 33.5682 39 33.7153 38.5C34.1892 36.8886 35.7129 36.7512 37.2153 36C38.2153 35.5 42.5938 33.5517 46.2153 32.5C47.7616 32.051 48.7425 30.8492 50.2153 31.5C50.7153 31.7209 51.7724 33.8356 52.2153 34.5C52.6583 35.1644 53.4133 36.3427 54.2153 37.5C55.8836 39.9074 57.2153 42.5 58.7153 43.5C59.7035 44.1589 60.5368 44.1477 61.7153 44C62.7586 43.8692 63.33 43.5674 64.2153 43C65.8592 41.9463 65.555 40.0278 67.2153 39C68.2653 38.35 68.9905 38.3424 70.2153 38.5C71.3446 38.6454 71.8021 38.82 72.7153 39.5C74.0442 40.4896 74.7289 41.1688 75.7153 42.5C77.12 44.3956 77.643 45.7111 78.2153 48C78.7153 50 79.2153 51.5 78.7153 53C78.2174 54.4935 76.788 54.9296 75.2153 55C73.9816 55.0552 73.7153 54.5 72.2153 54C70.9186 53.5678 69.9675 53.4522 68.7153 54C67.3181 54.6113 66.53 55.5078 66.2153 57C65.9702 58.1622 66.0283 58.8271 66.2153 60C66.6502 62.727 67.0653 64.8162 67.7153 67.5C68.3724 70.2129 72.2153 76.5 72.2153 76.5C72.2153 76.5 72.9081 77.6006 73.7153 80C71.8422 80.9788 72.2755 80.7554 70.3918 81.7134C68.6161 82.6165 66.446 83.6997 64.7153 84.5C62.9698 85.3072 62.0487 85.9195 60.2153 86.5C58.134 87.159 56.7285 88.3443 54.7153 87.5C53.8149 87.1224 52.9648 86.2495 52.7153 86C52.4658 85.7505 51.524 84.9262 51.2153 84C50.9066 83.0738 51.2153 81.5 51.2153 81.5C51.2153 81.5 51.3233 80.5758 51.2153 80C51.0544 79.1417 50.5403 78.525 50.2153 78C49.9381 77.5522 49.1151 76.8789 48.2153 76.5C46.7756 75.8938 45.2153 76.2355 44.2153 76.5C42.6934 76.9025 41.5122 77.4446 40.7153 78.5C40.0816 79.3392 39.7153 79.9485 39.7153 81C39.7153 82.0348 40.5572 83.2683 40.7085 83.4901L40.7153 83.5C41.6613 84.888 43.2693 84.612 44.2153 86L44.2459 86.0449C44.8215 86.8891 45.2153 87.4667 45.2153 88.5C45.2153 89.5515 44.2647 90.9124 44.2153 91C42.5653 93.9263 40.2738 94.6102 37.2153 96C33.9374 97.4895 31.8119 97.8327 28.2153 98C27.24 98.0454 25.964 98.1658 25.7153 98C25.4114 97.7974 25.0584 96.803 24.7153 96C24.3722 95.197 24.116 91.6467 23.2153 89C22.4552 86.7664 21.8535 85.5667 20.7153 83.5C20.166 82.5027 19.9345 81.8827 19.2153 81C18.252 79.8177 17.6025 79.1337 16.2153 78.5C15.6536 78.2435 15.3328 78 14.7153 78C14.0978 78 13.7723 78.2336 13.2153 78.5C12.7153 78.7391 11.6397 79.7299 11.2153 80C10.1102 80.7032 9.52289 81.4231 8.21529 81.5C6.73079 81.5873 5.87613 80.9294 4.71529 80C3.27732 78.8487 2.40998 77.7061 1.71533 76C1.03647 74.3327 0.778675 73.2465 1.21529 71.5C1.42709 70.6528 1.61897 70.1379 2.21529 69.5C2.69606 68.9857 3.08996 68.8235 3.71529 68.5C6.31682 67.1544 8.99148 70.4061 11.2153 68.5C11.9566 67.8646 12.4066 67.4262 12.7153 66.5C13.024 65.5738 12.7942 64.9731 12.7153 64C12.6489 63.1814 11.9931 60.586 11.2153 58.5C10.3 56.0454 8.71533 53.5 8.21529 52.5C7.77 51.6095 7.4908 50.97 7.71529 50C7.93543 49.0488 8.40295 48.5416 9.21529 48C10.7153 47 12.6887 45.6922 15.2153 45C17.6707 44.3273 19.1694 44.5 21.7153 44.5C22.7153 44.5 23.7931 44.7664 24.2153 45C25.3092 45.6054 25.912 46.2871 26.2153 47.5C26.7153 49.5 26.2816 50.827 27.7153 52C28.6711 52.782 29.4804 53 30.7153 53Z" fill="black"/>
<path d="M73.7153 80C72.9081 77.6006 72.2153 76.5 72.2153 76.5C72.2153 76.5 68.3724 70.2129 67.7153 67.5C67.0653 64.8162 66.6502 62.727 66.2153 60C66.0283 58.8271 65.9702 58.1622 66.2153 57C66.53 55.5078 67.3181 54.6113 68.7153 54C69.9675 53.4522 70.9186 53.5678 72.2153 54C73.7153 54.5 73.9816 55.0552 75.2153 55C76.788 54.9296 78.2174 54.4935 78.7153 53C79.2153 51.5 78.7153 50 78.2153 48C77.643 45.7111 77.12 44.3956 75.7153 42.5C74.7289 41.1688 74.0442 40.4896 72.7153 39.5C71.8021 38.82 71.3446 38.6454 70.2153 38.5C68.9905 38.3424 68.2653 38.35 67.2153 39C65.555 40.0278 65.8592 41.9463 64.2153 43C63.33 43.5674 62.7586 43.8692 61.7153 44C60.5368 44.1477 59.7035 44.1589 58.7153 43.5C57.2153 42.5 55.8836 39.9074 54.2153 37.5C53.4133 36.3427 52.6583 35.1644 52.2153 34.5C51.7724 33.8356 50.7153 31.7209 50.2153 31.5C48.7425 30.8492 47.7616 32.051 46.2153 32.5C42.5938 33.5517 38.2153 35.5 37.2153 36C35.7129 36.7512 34.1892 36.8886 33.7153 38.5C33.5682 39 33.7915 40.3904 34.2153 41.5C34.9559 43.4391 37.3102 43.4643 37.7153 45.5C37.9848 46.8542 37.7153 48.1632 37.2153 49C36.574 50.0733 36.2565 50.8078 35.2153 51.5C33.7609 52.4669 32.4618 53 30.7153 53C29.4803 53 28.6711 52.782 27.7153 52C26.2816 50.827 26.7153 49.5 26.2153 47.5C25.912 46.2871 25.3092 45.6054 24.2153 45C23.7931 44.7664 22.7153 44.5 21.7153 44.5C19.1694 44.5 17.6707 44.3273 15.2153 45C12.6887 45.6922 10.7153 47 9.21529 48C8.40295 48.5416 7.93543 49.0488 7.71529 50C7.4908 50.97 7.77 51.6095 8.21529 52.5C8.71533 53.5 10.3 56.0454 11.2153 58.5C11.9931 60.586 12.6489 63.1814 12.7153 64C12.7942 64.9731 13.024 65.5738 12.7153 66.5C12.4066 67.4262 11.9566 67.8646 11.2153 68.5C8.99148 70.4061 6.31682 67.1544 3.71529 68.5C3.08996 68.8235 2.69606 68.9857 2.21529 69.5C1.61897 70.1379 1.42709 70.6528 1.21529 71.5C0.778675 73.2465 1.03647 74.3327 1.71533 76C2.40998 77.7061 3.27732 78.8487 4.71529 80C5.87613 80.9294 6.73079 81.5873 8.21529 81.5C9.52289 81.4231 10.1102 80.7032 11.2153 80C11.6397 79.7299 12.7153 78.7391 13.2153 78.5C13.7723 78.2336 14.0978 78 14.7153 78C15.3328 78 15.6536 78.2435 16.2153 78.5C17.6025 79.1337 18.252 79.8177 19.2153 81C19.9345 81.8827 20.166 82.5027 20.7153 83.5C21.8535 85.5667 22.4552 86.7664 23.2153 89C24.116 91.6467 24.3722 95.197 24.7153 96C25.0584 96.803 25.4114 97.7974 25.7153 98C25.964 98.1658 27.24 98.0454 28.2153 98C31.8119 97.8327 33.9374 97.4895 37.2153 96C40.2738 94.6102 42.5653 93.9263 44.2153 91C44.2647 90.9124 45.2153 89.5515 45.2153 88.5C45.2153 87.4485 44.8075 86.8689 44.2153 86C43.2693 84.612 41.6613 84.888 40.7153 83.5C40.5845 83.3082 39.7153 82.0515 39.7153 81C39.7153 79.9485 40.0816 79.3392 40.7153 78.5C41.5122 77.4446 42.6934 76.9025 44.2153 76.5C45.2153 76.2355 46.7756 75.8938 48.2153 76.5C49.1151 76.8789 49.9381 77.5522 50.2153 78C50.5403 78.525 51.0544 79.1417 51.2153 80C51.3233 80.5758 51.2153 81.5 51.2153 81.5C51.2153 81.5 50.9066 83.0738 51.2153 84C51.524 84.9262 52.4658 85.7505 52.7153 86C52.9648 86.2495 53.8149 87.1224 54.7153 87.5C56.7285 88.3443 58.134 87.159 60.2153 86.5C62.0487 85.9195 62.9698 85.3072 64.7153 84.5C66.446 83.6997 68.6161 82.6165 70.3918 81.7134M73.7153 80C71.8422 80.9788 72.2755 80.7554 70.3918 81.7134M73.7153 80C72.4174 80.6691 71.6897 81.0443 70.3918 81.7134" stroke="black"/>
<defs>
<filter id="filter0_d" x="75.3423" y="154.256" width="383.215" height="50.692" filterUnits="userSpaceOnUse" color-interpolation-filters="sRGB">
<feFlood flood-opacity="0" result="BackgroundImageFix"/>
<feColorMatrix in="SourceAlpha" type="matrix" values="0 0 0 0 0 0 0 0 0 0 0 0 0 0 0 0 0 0 127 0"/>
<feOffset dy="4"/>
<feGaussianBlur stdDeviation="2"/>
<feColorMatrix type="matrix" values="0 0 0 0 0 0 0 0 0 0 0 0 0 0 0 0 0 0 0.25 0"/>
<feBlend mode="normal" in2="BackgroundImageFix" result="effect1_dropShadow"/>
<feBlend mode="normal" in="SourceGraphic" in2="effect1_dropShadow" result="shape"/>
</filter>
<linearGradient id="paint0_linear" x1="266.715" y1="145" x2="266.715" y2="204" gradientUnits="userSpaceOnUse">
<stop stop-color="#DDB564"/>
<stop offset="0.489583" stop-color="#F4EC96"/>
<stop offset="1" stop-color="#C2A25C"/>
</linearGradient>
</defs>
</svg>
